<svg width="653" height="258" viewBox="0 0 653 258" fill="none" xmlns="http://www.w3.org/2000/svg">
<path opacity="0.2" d="M53.9999 -0.000152865L53.9999 218L648 218" stroke="#E8ECF7"/>
<g clip-path="url(#clip0_16155_3145)">
<path d="M650 208C629.021 202.093 625.487 188.524 616.291 184.21C606.911 179.895 610.774 180.101 605.072 182.155C599.371 184.21 590.911 184.21 578.772 184.21C566.633 184.21 564.059 184.004 560.748 182.155C557.438 180.306 561.3 185.545 550.449 180.717C539.598 175.992 543.46 171.266 531.505 171.883C519.551 172.499 519.551 165.925 509.987 165.616C500.423 165.308 504.469 164.692 494.722 167.774C484.974 170.855 484.974 176.505 477.985 170.855C470.996 165.206 480.56 165.616 470.996 165.206C461.433 164.897 464.008 168.082 451.685 156.577C439.363 145.071 426.672 143.222 422.258 145.071C417.844 146.92 404.418 144.352 404.602 142.914C404.97 141.476 393.935 145.071 390.257 145.071C386.578 145.071 378.118 151.851 376.831 145.071C375.543 138.291 374.991 148.667 368.003 138.291C360.83 127.916 358.255 119.287 352.553 115.075C346.852 110.864 351.266 115.281 343.542 116.822C330.667 119.493 322.759 126.683 312.092 118.363C312.092 118.363 303.08 121.855 299.953 121.444C296.826 121.136 301.792 129.662 292.229 116.103C282.665 102.543 272.917 113.226 271.63 103.57C270.342 93.914 262.986 87.545 262.986 87.545C262.986 87.545 251.031 83.8469 248.456 85.696C245.881 87.545 240.732 89.805 235.582 87.545C230.432 85.2851 230.432 82.8197 223.995 85.1823C217.558 87.545 220.133 92.8868 213.696 89.2914C207.259 85.696 207.259 84.0524 204.684 87.545C202.109 91.0377 200.454 97.0985 195.672 97.0985C190.89 97.0985 193.833 96.3794 190.89 88.5723C187.947 80.7652 178.384 71.3144 178.016 65.9727C177.648 60.631 175.073 62.0691 168.636 63.5073C162.751 65.0482 138.29 57.8574 135.163 58.8846C132.036 59.9119 133.875 60.4255 126.151 58.7819C118.426 57.1383 117.875 52.8238 109.414 55.2892C100.216 58.0294 54 49.3936 54 52.8145" stroke="url(#paint0_linear_16155_3145)" stroke-width="2.49644" stroke-miterlimit="10"/>
<path d="M616.291 184.21C625.487 188.524 629.021 202.093 650 208H54V52.8145C54 49.3936 100.216 58.0294 109.414 55.2892C117.875 52.8238 118.426 57.1383 126.151 58.7819C133.875 60.4255 132.036 59.9119 135.163 58.8846C138.29 57.8574 162.751 65.0482 168.636 63.5073C175.073 62.0691 177.648 60.631 178.016 65.9727C178.384 71.3144 187.947 80.7652 190.89 88.5723C193.833 96.3794 190.89 97.0985 195.672 97.0985C200.454 97.0985 202.109 91.0377 204.684 87.545C207.259 84.0524 207.259 85.696 213.696 89.2914C220.133 92.8868 217.558 87.545 223.995 85.1823C230.432 82.8197 230.432 85.2851 235.582 87.545C240.732 89.805 245.881 87.545 248.456 85.696C251.031 83.8469 262.986 87.545 262.986 87.545C262.986 87.545 270.342 93.914 271.63 103.57C272.917 113.226 282.665 102.543 292.229 116.103C301.792 129.662 296.826 121.136 299.953 121.444C303.08 121.855 312.092 118.363 312.092 118.363C322.759 126.683 330.667 119.493 343.542 116.822C351.266 115.281 346.852 110.864 352.553 115.075C358.255 119.287 360.83 127.916 368.003 138.291C374.991 148.667 375.543 138.291 376.831 145.071C378.118 151.851 386.578 145.071 390.257 145.071C393.935 145.071 404.97 141.476 404.602 142.914C404.418 144.352 417.844 146.92 422.258 145.071C426.672 143.222 439.363 145.071 451.685 156.577C464.008 168.082 461.433 164.897 470.996 165.205C480.56 165.616 470.996 165.205 477.985 170.855C484.974 176.505 484.974 170.855 494.722 167.774C504.469 164.692 500.423 165.308 509.987 165.616C519.551 165.925 519.551 172.499 531.505 171.883C543.46 171.266 539.598 175.992 550.449 180.717C561.3 185.545 557.438 180.306 560.748 182.155C564.059 184.004 566.633 184.21 578.772 184.21H578.772C590.911 184.21 599.371 184.21 605.072 182.155C610.774 180.101 606.911 179.895 616.291 184.21Z" fill="url(#paint1_linear_16155_3145)" fill-opacity="0.18"/>
<path d="M650 208C629.021 204.403 625.487 196.14 616.291 193.512C606.911 190.885 610.774 191.01 605.072 192.261C599.371 193.512 590.911 193.512 578.772 193.512C566.633 193.512 564.059 193.387 560.748 192.261C557.438 191.135 561.3 194.326 550.449 191.385C539.598 188.508 543.46 185.63 531.505 186.005C519.551 186.381 519.551 182.377 509.987 182.189C500.423 182.002 504.469 181.626 494.722 183.503C484.974 185.38 484.974 188.821 477.985 185.38C470.996 181.939 480.56 182.189 470.996 181.939C461.433 181.752 464.008 183.691 451.685 176.684C439.363 169.678 426.672 168.552 422.258 169.678C417.844 170.804 404.418 169.24 404.602 168.364C404.97 167.489 393.935 169.678 390.257 169.678C386.578 169.678 378.118 173.807 376.831 169.678C375.543 165.549 374.991 171.868 368.003 165.549C360.83 159.231 358.255 153.976 352.553 151.411C346.852 148.846 351.266 151.536 343.542 152.475C330.667 154.101 322.759 158.48 312.092 153.413C312.092 153.413 303.08 155.54 299.953 155.29C296.826 155.102 301.792 160.294 292.229 152.037C282.665 143.779 272.917 150.285 271.63 144.405C270.342 138.525 262.986 134.646 262.986 134.646C262.986 134.646 251.031 132.394 248.456 133.52C245.881 134.646 240.732 136.022 235.582 134.646C230.432 133.27 230.432 131.768 223.995 133.207C217.558 134.646 220.133 137.899 213.696 135.709C207.259 133.52 207.259 132.519 204.684 134.646C202.109 136.773 200.454 140.464 195.672 140.464C190.89 140.464 193.833 140.026 190.89 135.272C187.947 130.517 178.384 124.762 178.016 121.509C177.648 118.256 175.073 119.132 168.636 120.008C162.751 120.946 138.29 116.567 135.163 117.193C132.036 117.818 133.875 118.131 126.151 117.13C118.426 116.129 117.875 113.502 109.414 115.003C100.216 116.672 54 111.413 54 113.496" stroke="url(#paint2_linear_16155_3145)" stroke-width="2.49644" stroke-miterlimit="10"/>
<path d="M616.291 193.512C625.487 196.14 629.021 204.403 650 208H54V113.496C54 111.413 100.216 116.672 109.414 115.003C117.875 113.502 118.426 116.129 126.151 117.13C133.875 118.131 132.036 117.818 135.163 117.193C138.29 116.567 162.751 120.946 168.636 120.008C175.073 119.132 177.648 118.256 178.016 121.509C178.384 124.762 187.947 130.517 190.89 135.272C193.833 140.026 190.89 140.464 195.672 140.464C200.454 140.464 202.109 136.773 204.684 134.646C207.259 132.519 207.259 133.52 213.696 135.709C220.133 137.899 217.558 134.646 223.995 133.207C230.432 131.768 230.432 133.27 235.582 134.646C240.732 136.022 245.881 134.646 248.456 133.52C251.031 132.394 262.986 134.646 262.986 134.646C262.986 134.646 270.342 138.525 271.63 144.405C272.917 150.285 282.665 143.779 292.229 152.037C301.792 160.294 296.826 155.102 299.953 155.29C303.08 155.54 312.092 153.413 312.092 153.413C322.759 158.48 330.667 154.101 343.542 152.475C351.266 151.536 346.852 148.846 352.553 151.411C358.255 153.976 360.83 159.231 368.003 165.549C374.991 171.868 375.543 165.549 376.831 169.678C378.118 173.807 386.578 169.678 390.257 169.678C393.935 169.678 404.97 167.489 404.602 168.364C404.418 169.24 417.844 170.804 422.258 169.678C426.672 168.552 439.363 169.678 451.685 176.684C464.008 183.691 461.433 181.752 470.996 181.939C480.56 182.189 470.996 181.939 477.985 185.38C484.974 188.821 484.974 185.38 494.722 183.503C504.469 181.626 500.423 182.002 509.987 182.189C519.551 182.377 519.551 186.381 531.505 186.005C543.46 185.63 539.598 188.508 550.449 191.385C561.3 194.326 557.438 191.135 560.748 192.261C564.059 193.387 566.633 193.512 578.772 193.512C590.911 193.512 599.371 193.512 605.072 192.261C610.774 191.01 606.911 190.885 616.291 193.512Z" fill="url(#paint3_linear_16155_3145)" fill-opacity="0.18"/>
<rect width="596" height="177" transform="matrix(-1 0 0 1 650 32)" fill="url(#paint4_linear_16155_3145)"/>
</g>
<ellipse cx="351.911" cy="152" rx="4.99105" ry="5" fill="#BD691F"/>
<path d="M302 93.4545C302 90.9944 303.994 89 306.455 89H396.255C398.715 89 400.709 90.9944 400.709 93.4545V133.177C400.709 135.637 398.715 137.632 396.255 137.632H357.594C356.382 137.632 355.235 138.181 354.474 139.125C352.871 141.116 349.838 141.116 348.235 139.125C347.475 138.181 346.328 137.632 345.115 137.632H306.455C303.994 137.632 302 135.637 302 133.177V93.4545Z" fill="#1E2332"/>
<path d="M322.222 103.727H323.54V108.479C323.54 109 323.417 109.458 323.17 109.853C322.926 110.248 322.583 110.557 322.14 110.78C321.698 111 321.18 111.11 320.589 111.11C319.994 111.11 319.476 111 319.033 110.78C318.591 110.557 318.247 110.248 318.003 109.853C317.76 109.458 317.638 109 317.638 108.479V103.727H318.955V108.369C318.955 108.672 319.021 108.942 319.154 109.178C319.289 109.415 319.478 109.601 319.722 109.736C319.966 109.868 320.255 109.935 320.589 109.935C320.922 109.935 321.211 109.868 321.455 109.736C321.701 109.601 321.891 109.415 322.023 109.178C322.156 108.942 322.222 108.672 322.222 108.369V103.727ZM328.724 105.727C328.691 105.416 328.551 105.175 328.305 105.002C328.061 104.829 327.744 104.743 327.353 104.743C327.079 104.743 326.843 104.784 326.647 104.867C326.45 104.95 326.3 105.062 326.196 105.205C326.091 105.347 326.038 105.509 326.036 105.691C326.036 105.843 326.07 105.974 326.139 106.085C326.21 106.196 326.306 106.291 326.426 106.369C326.547 106.445 326.681 106.509 326.828 106.561C326.975 106.613 327.122 106.657 327.272 106.692L327.953 106.863C328.228 106.927 328.492 107.013 328.745 107.122C329.001 107.231 329.229 107.368 329.431 107.534C329.634 107.7 329.795 107.9 329.914 108.134C330.032 108.369 330.091 108.643 330.091 108.958C330.091 109.384 329.982 109.759 329.765 110.084C329.547 110.406 329.232 110.658 328.82 110.84C328.41 111.02 327.914 111.11 327.332 111.11C326.766 111.11 326.275 111.022 325.858 110.847C325.444 110.672 325.12 110.416 324.885 110.08C324.653 109.744 324.528 109.335 324.509 108.852H325.805C325.824 109.105 325.902 109.316 326.039 109.484C326.177 109.652 326.355 109.777 326.576 109.86C326.798 109.943 327.047 109.984 327.321 109.984C327.608 109.984 327.859 109.942 328.074 109.857C328.292 109.769 328.462 109.648 328.586 109.494C328.709 109.338 328.771 109.156 328.774 108.947C328.771 108.758 328.716 108.602 328.607 108.479C328.498 108.353 328.345 108.249 328.149 108.166C327.955 108.081 327.727 108.005 327.467 107.939L326.64 107.726C326.041 107.572 325.567 107.339 325.219 107.026C324.873 106.711 324.701 106.294 324.701 105.773C324.701 105.344 324.817 104.969 325.049 104.647C325.283 104.325 325.601 104.075 326.004 103.898C326.406 103.718 326.862 103.628 327.371 103.628C327.887 103.628 328.339 103.718 328.728 103.898C329.118 104.075 329.425 104.323 329.647 104.64C329.87 104.955 329.985 105.317 329.992 105.727H328.724ZM333.53 111H331.066V103.727H333.58C334.302 103.727 334.922 103.873 335.441 104.164C335.962 104.453 336.362 104.868 336.641 105.411C336.92 105.953 337.06 106.601 337.06 107.357C337.06 108.114 336.919 108.765 336.637 109.31C336.358 109.854 335.954 110.272 335.427 110.563C334.901 110.854 334.269 111 333.53 111ZM332.383 109.86H333.466C333.973 109.86 334.396 109.768 334.734 109.583C335.073 109.396 335.327 109.118 335.498 108.749C335.668 108.377 335.753 107.913 335.753 107.357C335.753 106.8 335.668 106.339 335.498 105.972C335.327 105.602 335.075 105.326 334.741 105.144C334.41 104.96 333.998 104.867 333.505 104.867H332.383V109.86ZM340.19 109.651V108.603L343.276 103.727H344.149V105.219H343.617L341.539 108.511V108.567H345.847V109.651H340.19ZM343.659 111V109.331L343.674 108.862V103.727H344.916V111H343.659ZM348.1 110.006L348.054 110.396C348.021 110.695 347.961 110.998 347.876 111.305C347.793 111.616 347.706 111.901 347.613 112.161C347.521 112.422 347.446 112.626 347.39 112.776H346.523C346.556 112.631 346.601 112.435 346.658 112.186C346.717 111.938 346.774 111.658 346.829 111.348C346.883 111.038 346.92 110.723 346.939 110.403L346.963 110.006H348.1ZM351.731 111.138C351.146 111.138 350.644 110.991 350.225 110.695C349.808 110.396 349.487 109.967 349.263 109.406C349.04 108.842 348.929 108.164 348.929 107.371C348.931 106.578 349.044 105.903 349.266 105.347C349.491 104.788 349.812 104.362 350.228 104.068C350.648 103.775 351.148 103.628 351.731 103.628C352.313 103.628 352.814 103.775 353.233 104.068C353.652 104.362 353.973 104.788 354.195 105.347C354.42 105.905 354.532 106.58 354.532 107.371C354.532 108.166 354.42 108.846 354.195 109.409C353.973 109.97 353.652 110.399 353.233 110.695C352.816 110.991 352.315 111.138 351.731 111.138ZM351.731 110.027C352.185 110.027 352.544 109.803 352.807 109.356C353.072 108.906 353.204 108.244 353.204 107.371C353.204 106.793 353.144 106.308 353.023 105.915C352.902 105.522 352.732 105.226 352.512 105.027C352.292 104.826 352.031 104.725 351.731 104.725C351.278 104.725 350.921 104.95 350.658 105.4C350.395 105.847 350.263 106.504 350.26 107.371C350.258 107.951 350.316 108.438 350.434 108.834C350.555 109.229 350.726 109.527 350.946 109.729C351.166 109.928 351.428 110.027 351.731 110.027ZM358.037 103.628C358.385 103.63 358.724 103.692 359.053 103.812C359.384 103.931 359.683 104.125 359.948 104.395C360.213 104.662 360.424 105.021 360.58 105.471C360.736 105.921 360.814 106.477 360.814 107.14C360.817 107.765 360.75 108.324 360.615 108.816C360.483 109.306 360.292 109.72 360.044 110.059C359.795 110.397 359.496 110.656 359.145 110.833C358.795 111.011 358.401 111.099 357.963 111.099C357.503 111.099 357.096 111.009 356.741 110.83C356.388 110.65 356.103 110.403 355.885 110.091C355.667 109.778 355.534 109.421 355.484 109.018H356.78C356.846 109.307 356.981 109.537 357.185 109.707C357.391 109.875 357.65 109.96 357.963 109.96C358.467 109.96 358.855 109.741 359.127 109.303C359.4 108.865 359.536 108.256 359.536 107.477H359.486C359.37 107.686 359.22 107.866 359.035 108.017C358.85 108.166 358.641 108.281 358.406 108.362C358.174 108.442 357.928 108.482 357.668 108.482C357.242 108.482 356.858 108.38 356.517 108.177C356.179 107.973 355.91 107.694 355.711 107.339C355.515 106.984 355.415 106.578 355.413 106.121C355.413 105.647 355.522 105.222 355.74 104.846C355.96 104.467 356.266 104.169 356.659 103.951C357.052 103.731 357.512 103.623 358.037 103.628ZM358.041 104.693C357.785 104.693 357.554 104.756 357.348 104.881C357.145 105.004 356.984 105.173 356.865 105.386C356.749 105.596 356.691 105.832 356.691 106.092C356.694 106.35 356.752 106.585 356.865 106.795C356.981 107.006 357.139 107.173 357.338 107.296C357.539 107.419 357.768 107.481 358.027 107.481C358.218 107.481 358.397 107.444 358.563 107.371C358.728 107.297 358.873 107.196 358.996 107.065C359.121 106.933 359.219 106.782 359.287 106.614C359.358 106.446 359.393 106.269 359.39 106.082C359.39 105.833 359.331 105.603 359.213 105.393C359.097 105.182 358.937 105.013 358.733 104.885C358.532 104.757 358.301 104.693 358.041 104.693ZM361.665 109.651V108.603L364.751 103.727H365.625V105.219H365.092L363.015 108.511V108.567H367.322V109.651H361.665ZM365.135 111V109.331L365.149 108.862V103.727H366.392V111H365.135ZM368.858 111.078C368.642 111.078 368.458 111.002 368.304 110.851C368.15 110.699 368.074 110.515 368.077 110.297C368.074 110.084 368.15 109.902 368.304 109.75C368.458 109.598 368.642 109.523 368.858 109.523C369.066 109.523 369.247 109.598 369.401 109.75C369.557 109.902 369.637 110.084 369.639 110.297C369.637 110.441 369.599 110.573 369.525 110.691C369.454 110.809 369.36 110.904 369.241 110.975C369.125 111.044 368.998 111.078 368.858 111.078ZM370.621 109.651V108.603L373.707 103.727H374.58V105.219H374.048L371.97 108.511V108.567H376.278V109.651H370.621ZM374.09 111V109.331L374.104 108.862V103.727H375.347V111H374.09ZM379.822 111.099C379.311 111.099 378.856 111.012 378.459 110.837C378.063 110.661 377.751 110.418 377.521 110.105C377.292 109.793 377.17 109.432 377.155 109.022H378.491C378.503 109.219 378.568 109.39 378.686 109.537C378.804 109.681 378.962 109.794 379.158 109.874C379.355 109.955 379.575 109.995 379.819 109.995C380.079 109.995 380.31 109.95 380.511 109.86C380.713 109.768 380.87 109.64 380.984 109.477C381.097 109.313 381.153 109.125 381.151 108.912C381.153 108.692 381.096 108.498 380.98 108.33C380.864 108.161 380.696 108.03 380.476 107.935C380.258 107.841 379.995 107.793 379.687 107.793H379.045V106.778H379.687C379.941 106.778 380.162 106.734 380.352 106.646C380.543 106.559 380.694 106.436 380.803 106.277C380.911 106.116 380.965 105.93 380.962 105.719C380.965 105.513 380.919 105.335 380.824 105.183C380.731 105.029 380.6 104.91 380.43 104.825C380.262 104.739 380.064 104.697 379.837 104.697C379.614 104.697 379.408 104.737 379.219 104.817C379.029 104.898 378.877 105.013 378.761 105.162C378.645 105.309 378.583 105.484 378.576 105.688H377.308C377.318 105.28 377.435 104.923 377.66 104.615C377.887 104.305 378.19 104.063 378.569 103.891C378.948 103.715 379.373 103.628 379.844 103.628C380.329 103.628 380.75 103.719 381.108 103.901C381.468 104.081 381.746 104.324 381.942 104.629C382.139 104.935 382.237 105.272 382.237 105.641C382.24 106.051 382.119 106.394 381.875 106.671C381.633 106.948 381.316 107.129 380.923 107.214V107.271C381.435 107.342 381.826 107.532 382.099 107.839C382.373 108.145 382.509 108.525 382.507 108.979C382.507 109.387 382.391 109.751 382.159 110.073C381.929 110.393 381.612 110.644 381.207 110.826C380.805 111.008 380.343 111.099 379.822 111.099Z" fill="white"/>
<path d="M318.841 117.727V125H317.669L314.242 120.046H314.182V125H312.864V117.727H314.043L317.467 122.685H317.531V117.727H318.841ZM322.399 125.107C321.866 125.107 321.405 124.989 321.014 124.755C320.623 124.521 320.32 124.193 320.105 123.771C319.892 123.35 319.785 122.857 319.785 122.294C319.785 121.731 319.892 121.237 320.105 120.813C320.32 120.389 320.623 120.06 321.014 119.826C321.405 119.592 321.866 119.474 322.399 119.474C322.932 119.474 323.393 119.592 323.784 119.826C324.175 120.06 324.476 120.389 324.689 120.813C324.905 121.237 325.013 121.731 325.013 122.294C325.013 122.857 324.905 123.35 324.689 123.771C324.476 124.193 324.175 124.521 323.784 124.755C323.393 124.989 322.932 125.107 322.399 125.107ZM322.406 124.077C322.695 124.077 322.936 123.997 323.13 123.839C323.325 123.678 323.469 123.462 323.564 123.192C323.661 122.923 323.709 122.622 323.709 122.29C323.709 121.957 323.661 121.655 323.564 121.385C323.469 121.113 323.325 120.896 323.13 120.735C322.936 120.574 322.695 120.494 322.406 120.494C322.11 120.494 321.864 120.574 321.667 120.735C321.473 120.896 321.328 121.113 321.231 121.385C321.136 121.655 321.089 121.957 321.089 122.29C321.089 122.622 321.136 122.923 321.231 123.192C321.328 123.462 321.473 123.678 321.667 123.839C321.864 123.997 322.11 124.077 322.406 124.077ZM330.59 119.545L328.648 125H327.227L325.285 119.545H326.656L327.909 123.597H327.966L329.223 119.545H330.59ZM336.504 117.727V125H335.187V119.009H335.144L333.443 120.096V118.888L335.251 117.727H336.504ZM340.736 125.099C340.208 125.099 339.739 125.011 339.33 124.833C338.923 124.656 338.603 124.413 338.371 124.105C338.141 123.795 338.028 123.443 338.03 123.05C338.028 122.745 338.094 122.464 338.229 122.209C338.364 121.953 338.546 121.74 338.776 121.57C339.008 121.397 339.266 121.287 339.55 121.239V121.19C339.176 121.107 338.873 120.916 338.641 120.618C338.411 120.317 338.298 119.97 338.3 119.577C338.298 119.203 338.402 118.87 338.612 118.576C338.823 118.282 339.112 118.052 339.479 117.884C339.846 117.713 340.265 117.628 340.736 117.628C341.202 117.628 341.618 117.713 341.982 117.884C342.349 118.052 342.638 118.282 342.849 118.576C343.062 118.87 343.169 119.203 343.169 119.577C343.169 119.97 343.051 120.317 342.817 120.618C342.585 120.916 342.286 121.107 341.919 121.19V121.239C342.203 121.287 342.458 121.397 342.686 121.57C342.915 121.74 343.098 121.953 343.232 122.209C343.37 122.464 343.438 122.745 343.438 123.05C343.438 123.443 343.322 123.795 343.09 124.105C342.858 124.413 342.539 124.656 342.132 124.833C341.727 125.011 341.262 125.099 340.736 125.099ZM340.736 124.084C341.008 124.084 341.245 124.038 341.446 123.945C341.647 123.851 341.804 123.718 341.915 123.548C342.026 123.377 342.083 123.181 342.085 122.958C342.083 122.726 342.023 122.521 341.904 122.344C341.788 122.164 341.629 122.023 341.425 121.921C341.224 121.819 340.994 121.768 340.736 121.768C340.476 121.768 340.244 121.819 340.04 121.921C339.836 122.023 339.675 122.164 339.557 122.344C339.441 122.521 339.384 122.726 339.387 122.958C339.384 123.181 339.439 123.377 339.55 123.548C339.661 123.716 339.817 123.847 340.019 123.942C340.222 124.036 340.461 124.084 340.736 124.084ZM340.736 120.771C340.959 120.771 341.155 120.726 341.326 120.636C341.498 120.546 341.634 120.42 341.734 120.259C341.833 120.098 341.884 119.912 341.887 119.702C341.884 119.493 341.835 119.311 341.737 119.155C341.64 118.996 341.505 118.874 341.333 118.789C341.16 118.701 340.961 118.658 340.736 118.658C340.506 118.658 340.304 118.701 340.129 118.789C339.956 118.874 339.821 118.996 339.724 119.155C339.629 119.311 339.583 119.493 339.585 119.702C339.583 119.912 339.63 120.098 339.728 120.259C339.827 120.418 339.963 120.543 340.136 120.636C340.311 120.726 340.511 120.771 340.736 120.771ZM345.714 124.006L345.668 124.396C345.635 124.695 345.576 124.998 345.491 125.305C345.408 125.616 345.32 125.901 345.228 126.161C345.136 126.422 345.061 126.626 345.004 126.776H344.138C344.171 126.631 344.216 126.435 344.273 126.186C344.332 125.938 344.389 125.658 344.443 125.348C344.498 125.038 344.534 124.723 344.553 124.403L344.578 124.006H345.714ZM351.521 117.628C351.869 117.63 352.208 117.692 352.537 117.812C352.868 117.931 353.166 118.125 353.431 118.395C353.697 118.662 353.907 119.021 354.064 119.471C354.22 119.921 354.298 120.477 354.298 121.14C354.3 121.765 354.234 122.324 354.099 122.816C353.967 123.306 353.776 123.72 353.527 124.059C353.279 124.397 352.979 124.656 352.629 124.833C352.279 125.011 351.884 125.099 351.446 125.099C350.987 125.099 350.58 125.009 350.225 124.83C349.872 124.65 349.587 124.403 349.369 124.091C349.151 123.778 349.017 123.421 348.968 123.018H350.264C350.33 123.307 350.465 123.537 350.669 123.707C350.875 123.875 351.134 123.96 351.446 123.96C351.951 123.96 352.339 123.741 352.611 123.303C352.883 122.865 353.02 122.256 353.02 121.477H352.97C352.854 121.686 352.704 121.866 352.519 122.017C352.334 122.166 352.125 122.281 351.89 122.362C351.658 122.442 351.412 122.482 351.152 122.482C350.726 122.482 350.342 122.38 350.001 122.177C349.663 121.973 349.394 121.694 349.195 121.339C348.998 120.984 348.899 120.578 348.897 120.121C348.897 119.647 349.006 119.222 349.223 118.846C349.444 118.467 349.75 118.169 350.143 117.951C350.536 117.731 350.995 117.623 351.521 117.628ZM351.525 118.693C351.269 118.693 351.038 118.756 350.832 118.881C350.628 119.004 350.467 119.173 350.349 119.386C350.233 119.596 350.175 119.832 350.175 120.092C350.177 120.35 350.235 120.585 350.349 120.795C350.465 121.006 350.623 121.173 350.821 121.296C351.023 121.419 351.252 121.481 351.51 121.481C351.702 121.481 351.881 121.444 352.047 121.371C352.212 121.297 352.357 121.196 352.48 121.065C352.605 120.933 352.702 120.782 352.771 120.614C352.842 120.446 352.876 120.269 352.874 120.082C352.874 119.833 352.815 119.603 352.696 119.393C352.58 119.182 352.421 119.013 352.217 118.885C352.016 118.757 351.785 118.693 351.525 118.693ZM356.087 124.126C355.871 124.126 355.687 124.051 355.533 123.899C355.379 123.745 355.303 123.561 355.305 123.345C355.303 123.132 355.379 122.95 355.533 122.798C355.687 122.647 355.871 122.571 356.087 122.571C356.295 122.571 356.476 122.647 356.63 122.798C356.786 122.95 356.865 123.132 356.868 123.345C356.865 123.49 356.828 123.621 356.754 123.739C356.683 123.858 356.588 123.952 356.47 124.023C356.354 124.092 356.226 124.126 356.087 124.126ZM356.087 120.522C355.871 120.522 355.687 120.446 355.533 120.295C355.379 120.141 355.303 119.956 355.305 119.741C355.303 119.528 355.379 119.345 355.533 119.194C355.687 119.04 355.871 118.963 356.087 118.963C356.295 118.963 356.476 119.04 356.63 119.194C356.786 119.345 356.865 119.528 356.868 119.741C356.865 119.883 356.828 120.013 356.754 120.131C356.683 120.25 356.588 120.344 356.47 120.415C356.354 120.487 356.226 120.522 356.087 120.522ZM360.669 125.138C360.084 125.138 359.582 124.991 359.163 124.695C358.747 124.396 358.426 123.967 358.201 123.406C357.979 122.842 357.867 122.164 357.867 121.371C357.87 120.578 357.982 119.903 358.205 119.347C358.43 118.788 358.75 118.362 359.167 118.068C359.586 117.775 360.087 117.628 360.669 117.628C361.251 117.628 361.752 117.775 362.171 118.068C362.59 118.362 362.911 118.788 363.134 119.347C363.358 119.905 363.471 120.58 363.471 121.371C363.471 122.166 363.358 122.846 363.134 123.409C362.911 123.97 362.59 124.399 362.171 124.695C361.755 124.991 361.254 125.138 360.669 125.138ZM360.669 124.027C361.124 124.027 361.482 123.803 361.745 123.356C362.01 122.906 362.143 122.244 362.143 121.371C362.143 120.793 362.082 120.308 361.962 119.915C361.841 119.522 361.671 119.226 361.45 119.027C361.23 118.826 360.97 118.725 360.669 118.725C360.217 118.725 359.859 118.95 359.597 119.4C359.334 119.847 359.201 120.504 359.199 121.371C359.197 121.951 359.255 122.438 359.373 122.834C359.494 123.229 359.664 123.527 359.884 123.729C360.104 123.928 360.366 124.027 360.669 124.027ZM367.139 125.138C366.554 125.138 366.052 124.991 365.633 124.695C365.217 124.396 364.896 123.967 364.671 123.406C364.448 122.842 364.337 122.164 364.337 121.371C364.34 120.578 364.452 119.903 364.675 119.347C364.899 118.788 365.22 118.362 365.637 118.068C366.056 117.775 366.557 117.628 367.139 117.628C367.721 117.628 368.222 117.775 368.641 118.068C369.06 118.362 369.381 118.788 369.603 119.347C369.828 119.905 369.941 120.58 369.941 121.371C369.941 122.166 369.828 122.846 369.603 123.409C369.381 123.97 369.06 124.399 368.641 124.695C368.224 124.991 367.724 125.138 367.139 125.138ZM367.139 124.027C367.594 124.027 367.952 123.803 368.215 123.356C368.48 122.906 368.613 122.244 368.613 121.371C368.613 120.793 368.552 120.308 368.432 119.915C368.311 119.522 368.14 119.226 367.92 119.027C367.7 118.826 367.44 118.725 367.139 118.725C366.687 118.725 366.329 118.95 366.067 119.4C365.804 119.847 365.671 120.504 365.669 121.371C365.666 121.951 365.724 122.438 365.843 122.834C365.964 123.229 366.134 123.527 366.354 123.729C366.574 123.928 366.836 124.027 367.139 124.027ZM373.272 125V117.727H375.999C376.558 117.727 377.027 117.831 377.406 118.04C377.787 118.248 378.075 118.535 378.269 118.899C378.465 119.261 378.563 119.673 378.563 120.135C378.563 120.601 378.465 121.016 378.269 121.378C378.072 121.74 377.782 122.025 377.399 122.234C377.015 122.44 376.543 122.543 375.982 122.543H374.174V121.46H375.804C376.131 121.46 376.398 121.403 376.607 121.289C376.815 121.175 376.969 121.019 377.068 120.82C377.17 120.621 377.221 120.393 377.221 120.135C377.221 119.877 377.17 119.65 377.068 119.453C376.969 119.257 376.814 119.104 376.603 118.995C376.395 118.884 376.126 118.828 375.797 118.828H374.59V125H373.272ZM379.508 117.727H381.12L383.279 122.997H383.364L385.523 117.727H387.136V125H385.871V120.004H385.804L383.794 124.979H382.849L380.839 119.993H380.772V125H379.508V117.727Z" fill="#C36C1F"/>
<path d="M40.918 255.632C40.4896 255.632 40.1523 255.57 39.9062 255.447V254.456C40.2298 254.547 40.5671 254.593 40.918 254.593C41.3691 254.593 41.7109 254.456 41.9434 254.183C42.1803 253.909 42.2988 253.515 42.2988 253V243.006H43.4609V252.904C43.4609 253.77 43.2422 254.44 42.8047 254.914C42.3672 255.393 41.7383 255.632 40.918 255.632ZM50.5566 253L50.3311 251.934H50.2764C49.9027 252.403 49.529 252.722 49.1553 252.891C48.7861 253.055 48.3236 253.137 47.7676 253.137C47.0247 253.137 46.4414 252.945 46.0176 252.562C45.5983 252.18 45.3887 251.635 45.3887 250.929C45.3887 249.416 46.5986 248.623 49.0186 248.55L50.29 248.509V248.044C50.29 247.456 50.1624 247.023 49.9072 246.745C49.6566 246.463 49.2533 246.321 48.6973 246.321C48.0729 246.321 47.3665 246.513 46.5781 246.896L46.2295 246.027C46.5986 245.827 47.002 245.67 47.4395 245.556C47.8815 245.442 48.3236 245.385 48.7656 245.385C49.6589 245.385 50.3197 245.583 50.748 245.979C51.181 246.376 51.3975 247.012 51.3975 247.887V253H50.5566ZM47.9932 252.2C48.6995 252.2 49.2533 252.007 49.6543 251.619C50.0599 251.232 50.2627 250.689 50.2627 249.992V249.315L49.1279 249.363C48.2256 249.395 47.5739 249.536 47.1729 249.787C46.7764 250.033 46.5781 250.418 46.5781 250.942C46.5781 251.353 46.7012 251.665 46.9473 251.879C47.1979 252.093 47.5465 252.2 47.9932 252.2ZM58.8691 253V248.153C58.8691 247.543 58.7301 247.087 58.4521 246.786C58.1742 246.485 57.7389 246.335 57.1465 246.335C56.3626 246.335 55.7884 246.547 55.4238 246.971C55.0592 247.395 54.877 248.094 54.877 249.069V253H53.7422V245.508H54.665L54.8496 246.533H54.9043C55.1367 246.164 55.4626 245.879 55.8818 245.679C56.3011 245.474 56.7682 245.371 57.2832 245.371C58.1855 245.371 58.8646 245.59 59.3203 246.027C59.776 246.46 60.0039 247.155 60.0039 248.112V253H58.8691Z" fill="#9C9CA1"/>
<path d="M90.5361 253H89.374V243.006H94.9453V244.038H90.5361V247.695H94.6787V248.728H90.5361V253ZM99.6006 253.137C98.4932 253.137 97.6182 252.799 96.9756 252.125C96.3376 251.451 96.0186 250.514 96.0186 249.315C96.0186 248.108 96.3148 247.148 96.9072 246.438C97.5042 245.727 98.304 245.371 99.3066 245.371C100.245 245.371 100.988 245.681 101.535 246.301C102.082 246.916 102.355 247.729 102.355 248.741V249.459H97.1943C97.2171 250.339 97.4382 251.006 97.8574 251.462C98.2812 251.918 98.876 252.146 99.6416 252.146C100.448 252.146 101.246 251.977 102.034 251.64V252.651C101.633 252.825 101.253 252.948 100.893 253.021C100.537 253.098 100.106 253.137 99.6006 253.137ZM99.293 246.321C98.6914 246.321 98.2106 246.517 97.8506 246.909C97.4951 247.301 97.2855 247.843 97.2217 248.536H101.139C101.139 247.821 100.979 247.274 100.66 246.896C100.341 246.513 99.8854 246.321 99.293 246.321ZM107.783 245.385C108.768 245.385 109.531 245.722 110.073 246.396C110.62 247.066 110.894 248.017 110.894 249.247C110.894 250.478 110.618 251.435 110.066 252.118C109.52 252.797 108.758 253.137 107.783 253.137C107.296 253.137 106.849 253.048 106.443 252.87C106.042 252.688 105.705 252.41 105.432 252.036H105.35L105.11 253H104.297V242.363H105.432V244.947C105.432 245.526 105.413 246.046 105.377 246.506H105.432C105.96 245.758 106.744 245.385 107.783 245.385ZM107.619 246.335C106.844 246.335 106.286 246.558 105.944 247.005C105.603 247.447 105.432 248.194 105.432 249.247C105.432 250.3 105.607 251.054 105.958 251.51C106.309 251.961 106.872 252.187 107.646 252.187C108.344 252.187 108.863 251.934 109.205 251.428C109.547 250.917 109.718 250.186 109.718 249.233C109.718 248.258 109.547 247.531 109.205 247.053C108.863 246.574 108.335 246.335 107.619 246.335Z" fill="#9C9CA1"/>
<path d="M143.797 253L140.406 244.141H140.352C140.415 244.842 140.447 245.676 140.447 246.643V253H139.374V243.006H141.124L144.289 251.25H144.344L147.536 243.006H149.272V253H148.11V246.561C148.11 245.822 148.142 245.02 148.206 244.154H148.151L144.733 253H143.797ZM156.457 253L156.231 251.934H156.177C155.803 252.403 155.429 252.722 155.056 252.891C154.687 253.055 154.224 253.137 153.668 253.137C152.925 253.137 152.342 252.945 151.918 252.562C151.499 252.18 151.289 251.635 151.289 250.929C151.289 249.416 152.499 248.623 154.919 248.55L156.19 248.509V248.044C156.19 247.456 156.063 247.023 155.808 246.745C155.557 246.463 155.154 246.321 154.598 246.321C153.973 246.321 153.267 246.513 152.479 246.896L152.13 246.027C152.499 245.827 152.902 245.67 153.34 245.556C153.782 245.442 154.224 245.385 154.666 245.385C155.559 245.385 156.22 245.583 156.648 245.979C157.081 246.376 157.298 247.012 157.298 247.887V253H156.457ZM153.894 252.2C154.6 252.2 155.154 252.007 155.555 251.619C155.96 251.232 156.163 250.689 156.163 249.992V249.315L155.028 249.363C154.126 249.395 153.474 249.536 153.073 249.787C152.677 250.033 152.479 250.418 152.479 250.942C152.479 251.353 152.602 251.665 152.848 251.879C153.098 252.093 153.447 252.2 153.894 252.2ZM163.061 245.371C163.393 245.371 163.692 245.398 163.956 245.453L163.799 246.506C163.489 246.438 163.215 246.403 162.979 246.403C162.372 246.403 161.853 246.649 161.42 247.142C160.992 247.634 160.777 248.247 160.777 248.98V253H159.643V245.508H160.579L160.709 246.896H160.764C161.042 246.408 161.377 246.032 161.769 245.768C162.16 245.503 162.591 245.371 163.061 245.371Z" fill="#9C9CA1"/>
<path d="M198.656 253L197.412 249.821H193.406L192.176 253H191L194.951 242.965H195.929L199.859 253H198.656ZM197.05 248.775L195.888 245.679C195.737 245.287 195.582 244.806 195.423 244.236C195.323 244.674 195.179 245.155 194.992 245.679L193.816 248.775H197.05ZM204.549 253.137C204.061 253.137 203.615 253.048 203.209 252.87C202.808 252.688 202.471 252.41 202.197 252.036H202.115C202.17 252.474 202.197 252.888 202.197 253.28V256.363H201.062V245.508H201.985L202.143 246.533H202.197C202.489 246.123 202.828 245.827 203.216 245.645C203.603 245.462 204.048 245.371 204.549 245.371C205.542 245.371 206.308 245.711 206.846 246.39C207.388 247.069 207.659 248.021 207.659 249.247C207.659 250.478 207.383 251.435 206.832 252.118C206.285 252.797 205.524 253.137 204.549 253.137ZM204.385 246.335C203.619 246.335 203.065 246.547 202.724 246.971C202.382 247.395 202.206 248.069 202.197 248.994V249.247C202.197 250.3 202.373 251.054 202.724 251.51C203.075 251.961 203.637 252.187 204.412 252.187C205.059 252.187 205.565 251.924 205.93 251.4C206.299 250.876 206.483 250.154 206.483 249.233C206.483 248.299 206.299 247.584 205.93 247.087C205.565 246.586 205.05 246.335 204.385 246.335ZM213.066 245.371C213.399 245.371 213.698 245.398 213.962 245.453L213.805 246.506C213.495 246.438 213.221 246.403 212.984 246.403C212.378 246.403 211.859 246.649 211.426 247.142C210.997 247.634 210.783 248.247 210.783 248.98V253H209.648V245.508H210.585L210.715 246.896H210.77C211.048 246.408 211.382 246.032 211.774 245.768C212.166 245.503 212.597 245.371 213.066 245.371Z" fill="#9C9CA1"/>
<path d="M246.797 253L243.406 244.141H243.352C243.415 244.842 243.447 245.676 243.447 246.643V253H242.374V243.006H244.124L247.289 251.25H247.344L250.536 243.006H252.272V253H251.11V246.561C251.11 245.822 251.142 245.02 251.206 244.154H251.151L247.733 253H246.797ZM259.457 253L259.231 251.934H259.177C258.803 252.403 258.429 252.722 258.056 252.891C257.687 253.055 257.224 253.137 256.668 253.137C255.925 253.137 255.342 252.945 254.918 252.562C254.499 252.18 254.289 251.635 254.289 250.929C254.289 249.416 255.499 248.623 257.919 248.55L259.19 248.509V248.044C259.19 247.456 259.063 247.023 258.808 246.745C258.557 246.463 258.154 246.321 257.598 246.321C256.973 246.321 256.267 246.513 255.479 246.896L255.13 246.027C255.499 245.827 255.902 245.67 256.34 245.556C256.782 245.442 257.224 245.385 257.666 245.385C258.559 245.385 259.22 245.583 259.648 245.979C260.081 246.376 260.298 247.012 260.298 247.887V253H259.457ZM256.894 252.2C257.6 252.2 258.154 252.007 258.555 251.619C258.96 251.232 259.163 250.689 259.163 249.992V249.315L258.028 249.363C257.126 249.395 256.474 249.536 256.073 249.787C255.677 250.033 255.479 250.418 255.479 250.942C255.479 251.353 255.602 251.665 255.848 251.879C256.098 252.093 256.447 252.2 256.894 252.2ZM261.453 245.508H262.67L264.311 249.78C264.671 250.756 264.894 251.46 264.98 251.893H265.035C265.094 251.66 265.217 251.264 265.404 250.703C265.596 250.138 266.215 248.406 267.264 245.508H268.48L265.261 254.039C264.942 254.882 264.568 255.479 264.14 255.83C263.716 256.186 263.194 256.363 262.574 256.363C262.228 256.363 261.886 256.325 261.549 256.247V255.338C261.799 255.393 262.08 255.42 262.39 255.42C263.169 255.42 263.725 254.982 264.058 254.107L264.475 253.041L261.453 245.508Z" fill="#9C9CA1"/>
<path d="M294.918 255.632C294.49 255.632 294.152 255.57 293.906 255.447V254.456C294.23 254.547 294.567 254.593 294.918 254.593C295.369 254.593 295.711 254.456 295.943 254.183C296.18 253.909 296.299 253.515 296.299 253V243.006H297.461V252.904C297.461 253.77 297.242 254.44 296.805 254.914C296.367 255.393 295.738 255.632 294.918 255.632ZM301.016 245.508V250.368C301.016 250.979 301.155 251.435 301.433 251.735C301.711 252.036 302.146 252.187 302.738 252.187C303.522 252.187 304.094 251.972 304.454 251.544C304.819 251.116 305.001 250.416 305.001 249.445V245.508H306.136V253H305.199L305.035 251.995H304.974C304.741 252.364 304.418 252.647 304.003 252.843C303.593 253.039 303.123 253.137 302.595 253.137C301.683 253.137 301 252.92 300.544 252.487C300.093 252.054 299.867 251.362 299.867 250.409V245.508H301.016ZM313.676 253V248.153C313.676 247.543 313.537 247.087 313.259 246.786C312.981 246.485 312.546 246.335 311.953 246.335C311.169 246.335 310.595 246.547 310.23 246.971C309.866 247.395 309.684 248.094 309.684 249.069V253H308.549V245.508H309.472L309.656 246.533H309.711C309.943 246.164 310.269 245.879 310.688 245.679C311.108 245.474 311.575 245.371 312.09 245.371C312.992 245.371 313.671 245.59 314.127 246.027C314.583 246.46 314.811 247.155 314.811 248.112V253H313.676ZM320.313 253.137C319.206 253.137 318.331 252.799 317.688 252.125C317.05 251.451 316.731 250.514 316.731 249.315C316.731 248.108 317.028 247.148 317.62 246.438C318.217 245.727 319.017 245.371 320.02 245.371C320.958 245.371 321.701 245.681 322.248 246.301C322.795 246.916 323.068 247.729 323.068 248.741V249.459H317.907C317.93 250.339 318.151 251.006 318.57 251.462C318.994 251.918 319.589 252.146 320.354 252.146C321.161 252.146 321.959 251.977 322.747 251.64V252.651C322.346 252.825 321.965 252.948 321.605 253.021C321.25 253.098 320.819 253.137 320.313 253.137ZM320.006 246.321C319.404 246.321 318.924 246.517 318.563 246.909C318.208 247.301 317.998 247.843 317.935 248.536H321.852C321.852 247.821 321.692 247.274 321.373 246.896C321.054 246.513 320.598 246.321 320.006 246.321Z" fill="#9C9CA1"/>
<path d="M349.918 255.632C349.49 255.632 349.152 255.57 348.906 255.447V254.456C349.23 254.547 349.567 254.593 349.918 254.593C350.369 254.593 350.711 254.456 350.943 254.183C351.18 253.909 351.299 253.515 351.299 253V243.006H352.461V252.904C352.461 253.77 352.242 254.44 351.805 254.914C351.367 255.393 350.738 255.632 349.918 255.632ZM356.016 245.508V250.368C356.016 250.979 356.155 251.435 356.433 251.735C356.711 252.036 357.146 252.187 357.738 252.187C358.522 252.187 359.094 251.972 359.454 251.544C359.819 251.116 360.001 250.416 360.001 249.445V245.508H361.136V253H360.199L360.035 251.995H359.974C359.741 252.364 359.418 252.647 359.003 252.843C358.593 253.039 358.123 253.137 357.595 253.137C356.683 253.137 356 252.92 355.544 252.487C355.093 252.054 354.867 251.362 354.867 250.409V245.508H356.016ZM364.684 253H363.549V242.363H364.684V253Z" fill="#9C9CA1"/>
<path d="M399.656 253L398.412 249.821H394.406L393.176 253H392L395.951 242.965H396.929L400.859 253H399.656ZM398.05 248.775L396.888 245.679C396.737 245.287 396.582 244.806 396.423 244.236C396.323 244.674 396.179 245.155 395.992 245.679L394.816 248.775H398.05ZM403.129 245.508V250.368C403.129 250.979 403.268 251.435 403.546 251.735C403.824 252.036 404.259 252.187 404.852 252.187C405.635 252.187 406.207 251.972 406.567 251.544C406.932 251.116 407.114 250.416 407.114 249.445V245.508H408.249V253H407.312L407.148 251.995H407.087C406.854 252.364 406.531 252.647 406.116 252.843C405.706 253.039 405.237 253.137 404.708 253.137C403.797 253.137 403.113 252.92 402.657 252.487C402.206 252.054 401.98 251.362 401.98 250.409V245.508H403.129ZM416.794 245.508V246.226L415.406 246.39C415.534 246.549 415.648 246.759 415.748 247.019C415.848 247.274 415.898 247.563 415.898 247.887C415.898 248.62 415.648 249.206 415.146 249.644C414.645 250.081 413.957 250.3 413.082 250.3C412.859 250.3 412.649 250.282 412.453 250.245C411.97 250.5 411.729 250.822 411.729 251.209C411.729 251.414 411.813 251.567 411.981 251.667C412.15 251.763 412.439 251.811 412.85 251.811H414.176C414.987 251.811 415.609 251.981 416.042 252.323C416.479 252.665 416.698 253.162 416.698 253.813C416.698 254.643 416.366 255.274 415.7 255.707C415.035 256.145 414.064 256.363 412.788 256.363C411.808 256.363 411.052 256.181 410.519 255.816C409.99 255.452 409.726 254.937 409.726 254.271C409.726 253.816 409.871 253.422 410.163 253.089C410.455 252.756 410.865 252.531 411.394 252.412C411.202 252.326 411.04 252.191 410.908 252.009C410.781 251.826 410.717 251.615 410.717 251.373C410.717 251.1 410.79 250.86 410.936 250.655C411.081 250.45 411.312 250.252 411.626 250.061C411.239 249.901 410.922 249.63 410.676 249.247C410.434 248.864 410.313 248.427 410.313 247.935C410.313 247.114 410.56 246.483 411.052 246.041C411.544 245.594 412.241 245.371 413.144 245.371C413.535 245.371 413.889 245.417 414.203 245.508H416.794ZM410.819 254.258C410.819 254.663 410.99 254.971 411.332 255.181C411.674 255.39 412.164 255.495 412.802 255.495C413.754 255.495 414.458 255.352 414.914 255.064C415.374 254.782 415.604 254.397 415.604 253.909C415.604 253.504 415.479 253.221 415.229 253.062C414.978 252.907 414.506 252.829 413.813 252.829H412.453C411.938 252.829 411.537 252.952 411.25 253.198C410.963 253.444 410.819 253.798 410.819 254.258ZM411.435 247.907C411.435 248.431 411.583 248.828 411.879 249.097C412.175 249.366 412.588 249.5 413.116 249.5C414.224 249.5 414.777 248.962 414.777 247.887C414.777 246.761 414.217 246.198 413.096 246.198C412.562 246.198 412.152 246.342 411.865 246.629C411.578 246.916 411.435 247.342 411.435 247.907Z" fill="#9C9CA1"/>
<path d="M451.014 250.341C451.014 251.22 450.695 251.906 450.057 252.398C449.419 252.891 448.553 253.137 447.459 253.137C446.274 253.137 445.363 252.984 444.725 252.679V251.558C445.135 251.731 445.581 251.868 446.064 251.968C446.548 252.068 447.026 252.118 447.5 252.118C448.275 252.118 448.858 251.972 449.25 251.681C449.642 251.384 449.838 250.974 449.838 250.45C449.838 250.104 449.767 249.821 449.626 249.603C449.489 249.379 449.257 249.174 448.929 248.987C448.605 248.8 448.111 248.589 447.445 248.352C446.516 248.019 445.85 247.625 445.449 247.169C445.053 246.713 444.854 246.118 444.854 245.385C444.854 244.615 445.144 244.002 445.723 243.546C446.301 243.09 447.067 242.862 448.02 242.862C449.013 242.862 449.927 243.045 450.761 243.409L450.398 244.421C449.574 244.075 448.771 243.901 447.992 243.901C447.377 243.901 446.896 244.034 446.55 244.298C446.203 244.562 446.03 244.929 446.03 245.398C446.03 245.745 446.094 246.03 446.222 246.253C446.349 246.472 446.563 246.674 446.864 246.861C447.17 247.044 447.634 247.246 448.259 247.47C449.307 247.843 450.027 248.244 450.419 248.673C450.815 249.101 451.014 249.657 451.014 250.341ZM456.052 253.137C454.944 253.137 454.069 252.799 453.427 252.125C452.789 251.451 452.47 250.514 452.47 249.315C452.47 248.108 452.766 247.148 453.358 246.438C453.955 245.727 454.755 245.371 455.758 245.371C456.697 245.371 457.439 245.681 457.986 246.301C458.533 246.916 458.807 247.729 458.807 248.741V249.459H453.646C453.668 250.339 453.889 251.006 454.309 251.462C454.732 251.918 455.327 252.146 456.093 252.146C456.899 252.146 457.697 251.977 458.485 251.64V252.651C458.084 252.825 457.704 252.948 457.344 253.021C456.988 253.098 456.558 253.137 456.052 253.137ZM455.744 246.321C455.143 246.321 454.662 246.517 454.302 246.909C453.946 247.301 453.737 247.843 453.673 248.536H457.59C457.59 247.821 457.43 247.274 457.111 246.896C456.792 246.513 456.337 246.321 455.744 246.321ZM464.234 253.137C463.747 253.137 463.3 253.048 462.895 252.87C462.493 252.688 462.156 252.41 461.883 252.036H461.801C461.855 252.474 461.883 252.888 461.883 253.28V256.363H460.748V245.508H461.671L461.828 246.533H461.883C462.174 246.123 462.514 245.827 462.901 245.645C463.289 245.462 463.733 245.371 464.234 245.371C465.228 245.371 465.993 245.711 466.531 246.39C467.074 247.069 467.345 248.021 467.345 249.247C467.345 250.478 467.069 251.435 466.518 252.118C465.971 252.797 465.21 253.137 464.234 253.137ZM464.07 246.335C463.305 246.335 462.751 246.547 462.409 246.971C462.067 247.395 461.892 248.069 461.883 248.994V249.247C461.883 250.3 462.058 251.054 462.409 251.51C462.76 251.961 463.323 252.187 464.098 252.187C464.745 252.187 465.251 251.924 465.615 251.4C465.984 250.876 466.169 250.154 466.169 249.233C466.169 248.299 465.984 247.584 465.615 247.087C465.251 246.586 464.736 246.335 464.07 246.335Z" fill="#9C9CA1"/>
<path d="M505.049 247.989C505.049 249.589 504.643 250.847 503.832 251.763C503.025 252.679 501.902 253.137 500.462 253.137C498.99 253.137 497.853 252.688 497.051 251.79C496.253 250.888 495.854 249.616 495.854 247.976C495.854 246.349 496.256 245.089 497.058 244.195C497.86 243.298 498.999 242.849 500.476 242.849C501.911 242.849 503.032 243.304 503.839 244.216C504.646 245.127 505.049 246.385 505.049 247.989ZM497.085 247.989C497.085 249.343 497.372 250.37 497.946 251.072C498.525 251.77 499.364 252.118 500.462 252.118C501.569 252.118 502.406 251.77 502.971 251.072C503.536 250.375 503.818 249.347 503.818 247.989C503.818 246.645 503.536 245.626 502.971 244.934C502.41 244.236 501.578 243.888 500.476 243.888C499.368 243.888 498.525 244.239 497.946 244.94C497.372 245.638 497.085 246.654 497.085 247.989ZM510.107 253.137C509.023 253.137 508.182 252.804 507.585 252.139C506.993 251.469 506.696 250.523 506.696 249.302C506.696 248.049 506.997 247.08 507.599 246.396C508.205 245.713 509.066 245.371 510.183 245.371C510.543 245.371 510.903 245.41 511.263 245.487C511.623 245.565 511.905 245.656 512.11 245.761L511.762 246.725C511.511 246.624 511.238 246.542 510.941 246.479C510.645 246.41 510.383 246.376 510.155 246.376C508.633 246.376 507.872 247.347 507.872 249.288C507.872 250.209 508.057 250.915 508.426 251.407C508.799 251.899 509.351 252.146 510.08 252.146C510.704 252.146 511.345 252.011 512.001 251.742V252.747C511.5 253.007 510.868 253.137 510.107 253.137ZM516.205 252.2C516.406 252.2 516.599 252.187 516.786 252.159C516.973 252.127 517.121 252.095 517.23 252.063V252.932C517.107 252.991 516.925 253.039 516.684 253.075C516.447 253.116 516.232 253.137 516.041 253.137C514.592 253.137 513.867 252.373 513.867 250.847V246.39H512.794V245.843L513.867 245.371L514.346 243.771H515.002V245.508H517.176V246.39H515.002V250.799C515.002 251.25 515.109 251.596 515.323 251.838C515.537 252.079 515.831 252.2 516.205 252.2Z" fill="#9C9CA1"/>
<path d="M553.181 253H551.854L546.393 244.612H546.338C546.411 245.597 546.447 246.499 546.447 247.319V253H545.374V243.006H546.687L552.135 251.359H552.189C552.18 251.236 552.16 250.842 552.128 250.177C552.096 249.507 552.085 249.028 552.094 248.741V243.006H553.181V253ZM562.225 249.247C562.225 250.468 561.917 251.423 561.302 252.111C560.687 252.795 559.837 253.137 558.752 253.137C558.082 253.137 557.487 252.979 556.968 252.665C556.448 252.351 556.047 251.899 555.765 251.312C555.482 250.724 555.341 250.035 555.341 249.247C555.341 248.026 555.646 247.076 556.257 246.396C556.868 245.713 557.715 245.371 558.8 245.371C559.848 245.371 560.68 245.72 561.295 246.417C561.915 247.114 562.225 248.058 562.225 249.247ZM556.517 249.247C556.517 250.204 556.708 250.933 557.091 251.435C557.474 251.936 558.036 252.187 558.779 252.187C559.522 252.187 560.085 251.938 560.468 251.441C560.855 250.94 561.049 250.209 561.049 249.247C561.049 248.295 560.855 247.572 560.468 247.08C560.085 246.583 559.518 246.335 558.766 246.335C558.023 246.335 557.462 246.579 557.084 247.066C556.706 247.554 556.517 248.281 556.517 249.247ZM565.861 253L563.018 245.508H564.234L565.848 249.951C566.212 250.99 566.426 251.665 566.49 251.975H566.545C566.595 251.733 566.752 251.234 567.017 250.478C567.285 249.716 567.885 248.06 568.814 245.508H570.031L567.188 253H565.861Z" fill="#9C9CA1"/>
<path d="M606.352 247.907C606.352 249.557 605.903 250.819 605.005 251.694C604.112 252.565 602.824 253 601.143 253H598.374V243.006H601.437C602.991 243.006 604.198 243.437 605.06 244.298C605.921 245.159 606.352 246.362 606.352 247.907ZM605.121 247.948C605.121 246.645 604.793 245.663 604.137 245.002C603.485 244.341 602.514 244.011 601.225 244.011H599.536V251.995H600.951C602.337 251.995 603.378 251.656 604.075 250.977C604.772 250.293 605.121 249.284 605.121 247.948ZM611.581 253.137C610.474 253.137 609.599 252.799 608.956 252.125C608.318 251.451 607.999 250.514 607.999 249.315C607.999 248.108 608.295 247.148 608.888 246.438C609.485 245.727 610.285 245.371 611.287 245.371C612.226 245.371 612.969 245.681 613.516 246.301C614.062 246.916 614.336 247.729 614.336 248.741V249.459H609.175C609.198 250.339 609.419 251.006 609.838 251.462C610.262 251.918 610.856 252.146 611.622 252.146C612.429 252.146 613.226 251.977 614.015 251.64V252.651C613.614 252.825 613.233 252.948 612.873 253.021C612.518 253.098 612.087 253.137 611.581 253.137ZM611.273 246.321C610.672 246.321 610.191 246.517 609.831 246.909C609.476 247.301 609.266 247.843 609.202 248.536H613.119C613.119 247.821 612.96 247.274 612.641 246.896C612.322 246.513 611.866 246.321 611.273 246.321ZM619.271 253.137C618.187 253.137 617.346 252.804 616.749 252.139C616.157 251.469 615.86 250.523 615.86 249.302C615.86 248.049 616.161 247.08 616.763 246.396C617.369 245.713 618.23 245.371 619.347 245.371C619.707 245.371 620.067 245.41 620.427 245.487C620.787 245.565 621.069 245.656 621.274 245.761L620.926 246.725C620.675 246.624 620.402 246.542 620.105 246.479C619.809 246.41 619.547 246.376 619.319 246.376C617.797 246.376 617.036 247.347 617.036 249.288C617.036 250.209 617.221 250.915 617.59 251.407C617.964 251.899 618.515 252.146 619.244 252.146C619.868 252.146 620.509 252.011 621.165 251.742V252.747C620.664 253.007 620.033 253.137 619.271 253.137Z" fill="#9C9CA1"/>
<path d="M7.08203 21.9307C7.08203 22.5505 6.84961 23.0632 6.38477 23.4688C5.91992 23.8698 5.27051 24.1227 4.43652 24.2275V25.8135H3.55469V24.2891C3.04427 24.2891 2.5498 24.2503 2.07129 24.1729C1.59277 24.0908 1.20085 23.9792 0.895508 23.8379V22.7715C1.27376 22.9401 1.70898 23.0791 2.20117 23.1885C2.69792 23.2933 3.14909 23.3457 3.55469 23.3457V20.3379C2.62044 20.0417 1.96419 19.6976 1.58594 19.3057C1.21224 18.9137 1.02539 18.4079 1.02539 17.7881C1.02539 17.1911 1.25553 16.7012 1.71582 16.3184C2.18066 15.9355 2.79362 15.7031 3.55469 15.6211V14.377H4.43652V15.6074C5.27507 15.6302 6.08398 15.7988 6.86328 16.1133L6.50781 17.0088C5.82878 16.7399 5.13835 16.5804 4.43652 16.5303V19.4971C5.15202 19.7249 5.6875 19.9482 6.04297 20.167C6.39844 20.3812 6.66048 20.6296 6.8291 20.9121C6.99772 21.1901 7.08203 21.5296 7.08203 21.9307ZM5.91992 22.0195C5.91992 21.6914 5.81738 21.4271 5.6123 21.2266C5.41178 21.0215 5.01986 20.8187 4.43652 20.6182V23.2773C5.42546 23.1406 5.91992 22.7214 5.91992 22.0195ZM2.18066 17.7744C2.18066 18.1208 2.2832 18.3988 2.48828 18.6084C2.69336 18.818 3.04883 19.0163 3.55469 19.2031V16.5576C3.10352 16.6305 2.76172 16.7741 2.5293 16.9883C2.29688 17.1979 2.18066 17.46 2.18066 17.7744ZM12.8994 25H11.792V17.877C11.792 17.2845 11.8102 16.724 11.8467 16.1953C11.751 16.291 11.6439 16.3913 11.5254 16.4961C11.4069 16.6009 10.8646 17.0452 9.89844 17.8291L9.29688 17.0498L11.9424 15.0059H12.8994V25ZM23.3311 19.9893C23.3311 21.7165 23.0576 23.0062 22.5107 23.8584C21.9684 24.7106 21.1367 25.1367 20.0156 25.1367C18.9401 25.1367 18.1221 24.7015 17.5615 23.8311C17.001 22.9561 16.7207 21.6755 16.7207 19.9893C16.7207 18.2484 16.9919 16.9564 17.5342 16.1133C18.0765 15.2702 18.9036 14.8486 20.0156 14.8486C21.1003 14.8486 21.9229 15.2884 22.4834 16.168C23.0485 17.0475 23.3311 18.3213 23.3311 19.9893ZM17.8691 19.9893C17.8691 21.443 18.04 22.5026 18.3818 23.168C18.7236 23.8288 19.2682 24.1592 20.0156 24.1592C20.7721 24.1592 21.319 23.8242 21.6562 23.1543C21.998 22.4798 22.1689 21.4248 22.1689 19.9893C22.1689 18.5537 21.998 17.5033 21.6562 16.8379C21.319 16.168 20.7721 15.833 20.0156 15.833C19.2682 15.833 18.7236 16.1634 18.3818 16.8242C18.04 17.4805 17.8691 18.5355 17.8691 19.9893ZM31.3428 19.9893C31.3428 21.7165 31.0693 23.0062 30.5225 23.8584C29.9801 24.7106 29.1484 25.1367 28.0273 25.1367C26.9518 25.1367 26.1338 24.7015 25.5732 23.8311C25.0127 22.9561 24.7324 21.6755 24.7324 19.9893C24.7324 18.2484 25.0036 16.9564 25.5459 16.1133C26.0882 15.2702 26.9154 14.8486 28.0273 14.8486C29.112 14.8486 29.9346 15.2884 30.4951 16.168C31.0602 17.0475 31.3428 18.3213 31.3428 19.9893ZM25.8809 19.9893C25.8809 21.443 26.0518 22.5026 26.3936 23.168C26.7354 23.8288 27.2799 24.1592 28.0273 24.1592C28.7839 24.1592 29.3307 23.8242 29.668 23.1543C30.0098 22.4798 30.1807 21.4248 30.1807 19.9893C30.1807 18.5537 30.0098 17.5033 29.668 16.8379C29.3307 16.168 28.7839 15.833 28.0273 15.833C27.2799 15.833 26.7354 16.1634 26.3936 16.8242C26.0518 17.4805 25.8809 18.5355 25.8809 19.9893Z" fill="#9C9CA1"/>
<path d="M15.082 59.9307C15.082 60.5505 14.8496 61.0632 14.3848 61.4688C13.9199 61.8698 13.2705 62.1227 12.4365 62.2275V63.8135H11.5547V62.2891C11.0443 62.2891 10.5498 62.2503 10.0713 62.1729C9.59277 62.0908 9.20085 61.9792 8.89551 61.8379V60.7715C9.27376 60.9401 9.70898 61.0791 10.2012 61.1885C10.6979 61.2933 11.1491 61.3457 11.5547 61.3457V58.3379C10.6204 58.0417 9.96419 57.6976 9.58594 57.3057C9.21224 56.9137 9.02539 56.4079 9.02539 55.7881C9.02539 55.1911 9.25553 54.7012 9.71582 54.3184C10.1807 53.9355 10.7936 53.7031 11.5547 53.6211V52.377H12.4365V53.6074C13.2751 53.6302 14.084 53.7988 14.8633 54.1133L14.5078 55.0088C13.8288 54.7399 13.1383 54.5804 12.4365 54.5303V57.4971C13.152 57.7249 13.6875 57.9482 14.043 58.167C14.3984 58.3812 14.6605 58.6296 14.8291 58.9121C14.9977 59.1901 15.082 59.5296 15.082 59.9307ZM13.9199 60.0195C13.9199 59.6914 13.8174 59.4271 13.6123 59.2266C13.4118 59.0215 13.0199 58.8187 12.4365 58.6182V61.2773C13.4255 61.1406 13.9199 60.7214 13.9199 60.0195ZM10.1807 55.7744C10.1807 56.1208 10.2832 56.3988 10.4883 56.6084C10.6934 56.818 11.0488 57.0163 11.5547 57.2031V54.5576C11.1035 54.6305 10.7617 54.7741 10.5293 54.9883C10.2969 55.1979 10.1807 55.46 10.1807 55.7744ZM20.0039 52.8623C20.9154 52.8623 21.6377 53.0742 22.1709 53.498C22.7041 53.9219 22.9707 54.5075 22.9707 55.2549C22.9707 55.7471 22.818 56.196 22.5127 56.6016C22.2074 57.0072 21.7197 57.3763 21.0498 57.709C21.861 58.0964 22.4375 58.5042 22.7793 58.9326C23.1211 59.3564 23.292 59.8486 23.292 60.4092C23.292 61.2386 23.0026 61.9017 22.4238 62.3984C21.8451 62.8906 21.0521 63.1367 20.0449 63.1367C18.9785 63.1367 18.1582 62.9043 17.584 62.4395C17.0098 61.9701 16.7227 61.307 16.7227 60.4502C16.7227 59.3063 17.4199 58.4154 18.8145 57.7773C18.1855 57.4219 17.7344 57.0391 17.4609 56.6289C17.1875 56.2142 17.0508 55.7516 17.0508 55.2412C17.0508 54.5166 17.3174 53.9401 17.8506 53.5117C18.3883 53.0788 19.1061 52.8623 20.0039 52.8623ZM17.8438 60.4775C17.8438 61.0244 18.0329 61.4505 18.4111 61.7559C18.7939 62.0612 19.3294 62.2139 20.0176 62.2139C20.6966 62.2139 21.2253 62.0544 21.6035 61.7354C21.9818 61.4163 22.1709 60.9788 22.1709 60.4229C22.1709 59.9808 21.9932 59.5889 21.6377 59.2471C21.2822 58.9007 20.6624 58.5658 19.7783 58.2422C19.0993 58.5339 18.6071 58.8574 18.3018 59.2129C17.9964 59.5638 17.8438 59.9854 17.8438 60.4775ZM19.9902 53.7852C19.4206 53.7852 18.974 53.9219 18.6504 54.1953C18.3268 54.4688 18.165 54.8333 18.165 55.2891C18.165 55.7083 18.2995 56.0684 18.5684 56.3691C18.8372 56.6699 19.334 56.9707 20.0586 57.2715C20.7103 56.998 21.1706 56.7041 21.4395 56.3896C21.7129 56.0752 21.8496 55.7083 21.8496 55.2891C21.8496 54.8288 21.6833 54.4642 21.3506 54.1953C21.0225 53.9219 20.569 53.7852 19.9902 53.7852ZM31.3311 57.9893C31.3311 59.7165 31.0576 61.0062 30.5107 61.8584C29.9684 62.7106 29.1367 63.1367 28.0156 63.1367C26.9401 63.1367 26.1221 62.7015 25.5615 61.8311C25.001 60.9561 24.7207 59.6755 24.7207 57.9893C24.7207 56.2484 24.9919 54.9564 25.5342 54.1133C26.0765 53.2702 26.9036 52.8486 28.0156 52.8486C29.1003 52.8486 29.9229 53.2884 30.4834 54.168C31.0485 55.0475 31.3311 56.3213 31.3311 57.9893ZM25.8691 57.9893C25.8691 59.443 26.04 60.5026 26.3818 61.168C26.7236 61.8288 27.2682 62.1592 28.0156 62.1592C28.7721 62.1592 29.319 61.8242 29.6562 61.1543C29.998 60.4798 30.1689 59.4248 30.1689 57.9893C30.1689 56.5537 29.998 55.5033 29.6562 54.8379C29.319 54.168 28.7721 53.833 28.0156 53.833C27.2682 53.833 26.7236 54.1634 26.3818 54.8242C26.04 55.4805 25.8691 56.5355 25.8691 57.9893Z" fill="#9C9CA1"/>
<path d="M15.082 97.9307C15.082 98.5505 14.8496 99.0632 14.3848 99.4688C13.9199 99.8698 13.2705 100.123 12.4365 100.228V101.813H11.5547V100.289C11.0443 100.289 10.5498 100.25 10.0713 100.173C9.59277 100.091 9.20085 99.9792 8.89551 99.8379V98.7715C9.27376 98.9401 9.70898 99.0791 10.2012 99.1885C10.6979 99.2933 11.1491 99.3457 11.5547 99.3457V96.3379C10.6204 96.0417 9.96419 95.6976 9.58594 95.3057C9.21224 94.9137 9.02539 94.4079 9.02539 93.7881C9.02539 93.1911 9.25553 92.7012 9.71582 92.3184C10.1807 91.9355 10.7936 91.7031 11.5547 91.6211V90.377H12.4365V91.6074C13.2751 91.6302 14.084 91.7988 14.8633 92.1133L14.5078 93.0088C13.8288 92.7399 13.1383 92.5804 12.4365 92.5303V95.4971C13.152 95.7249 13.6875 95.9482 14.043 96.167C14.3984 96.3812 14.6605 96.6296 14.8291 96.9121C14.9977 97.1901 15.082 97.5296 15.082 97.9307ZM13.9199 98.0195C13.9199 97.6914 13.8174 97.4271 13.6123 97.2266C13.4118 97.0215 13.0199 96.8187 12.4365 96.6182V99.2773C13.4255 99.1406 13.9199 98.7214 13.9199 98.0195ZM10.1807 93.7744C10.1807 94.1208 10.2832 94.3988 10.4883 94.6084C10.6934 94.818 11.0488 95.0163 11.5547 95.2031V92.5576C11.1035 92.6305 10.7617 92.7741 10.5293 92.9883C10.2969 93.1979 10.1807 93.46 10.1807 93.7744ZM16.8115 96.7275C16.8115 94.7633 17.1921 93.2959 17.9531 92.3252C18.7188 91.3499 19.849 90.8623 21.3438 90.8623C21.8587 90.8623 22.2643 90.9056 22.5605 90.9922V91.9697C22.2096 91.8558 21.8086 91.7988 21.3574 91.7988C20.2865 91.7988 19.4684 92.1338 18.9033 92.8037C18.3382 93.4691 18.0283 94.5173 17.9736 95.9482H18.0557C18.557 95.1644 19.3499 94.7725 20.4346 94.7725C21.3324 94.7725 22.0387 95.0436 22.5537 95.5859C23.0732 96.1283 23.333 96.8643 23.333 97.7939C23.333 98.833 23.0482 99.651 22.4785 100.248C21.9134 100.84 21.1478 101.137 20.1816 101.137C19.1471 101.137 18.3268 100.749 17.7207 99.9746C17.1146 99.1953 16.8115 98.113 16.8115 96.7275ZM20.168 100.173C20.8151 100.173 21.3164 99.9701 21.6719 99.5645C22.0319 99.1543 22.2119 98.5641 22.2119 97.7939C22.2119 97.1331 22.0456 96.6136 21.7129 96.2354C21.3802 95.8571 20.8835 95.668 20.2227 95.668C19.8125 95.668 19.4365 95.7523 19.0947 95.9209C18.7529 96.0895 18.4795 96.3219 18.2744 96.6182C18.0739 96.9144 17.9736 97.222 17.9736 97.541C17.9736 98.0104 18.0648 98.4479 18.2471 98.8535C18.4294 99.2591 18.6868 99.5804 19.0195 99.8174C19.3568 100.054 19.7396 100.173 20.168 100.173ZM31.3311 95.9893C31.3311 97.7165 31.0576 99.0062 30.5107 99.8584C29.9684 100.711 29.1367 101.137 28.0156 101.137C26.9401 101.137 26.1221 100.701 25.5615 99.8311C25.001 98.9561 24.7207 97.6755 24.7207 95.9893C24.7207 94.2484 24.9919 92.9564 25.5342 92.1133C26.0765 91.2702 26.9036 90.8486 28.0156 90.8486C29.1003 90.8486 29.9229 91.2884 30.4834 92.168C31.0485 93.0475 31.3311 94.3213 31.3311 95.9893ZM25.8691 95.9893C25.8691 97.443 26.04 98.5026 26.3818 99.168C26.7236 99.8288 27.2682 100.159 28.0156 100.159C28.7721 100.159 29.319 99.8242 29.6562 99.1543C29.998 98.4798 30.1689 97.4248 30.1689 95.9893C30.1689 94.5537 29.998 93.5033 29.6562 92.8379C29.319 92.168 28.7721 91.833 28.0156 91.833C27.2682 91.833 26.7236 92.1634 26.3818 92.8242C26.04 93.4805 25.8691 94.5355 25.8691 95.9893Z" fill="#9C9CA1"/>
<path d="M15.082 135.931C15.082 136.55 14.8496 137.063 14.3848 137.469C13.9199 137.87 13.2705 138.123 12.4365 138.228V139.813H11.5547V138.289C11.0443 138.289 10.5498 138.25 10.0713 138.173C9.59277 138.091 9.20085 137.979 8.89551 137.838V136.771C9.27376 136.94 9.70898 137.079 10.2012 137.188C10.6979 137.293 11.1491 137.346 11.5547 137.346V134.338C10.6204 134.042 9.96419 133.698 9.58594 133.306C9.21224 132.914 9.02539 132.408 9.02539 131.788C9.02539 131.191 9.25553 130.701 9.71582 130.318C10.1807 129.936 10.7936 129.703 11.5547 129.621V128.377H12.4365V129.607C13.2751 129.63 14.084 129.799 14.8633 130.113L14.5078 131.009C13.8288 130.74 13.1383 130.58 12.4365 130.53V133.497C13.152 133.725 13.6875 133.948 14.043 134.167C14.3984 134.381 14.6605 134.63 14.8291 134.912C14.9977 135.19 15.082 135.53 15.082 135.931ZM13.9199 136.02C13.9199 135.691 13.8174 135.427 13.6123 135.227C13.4118 135.021 13.0199 134.819 12.4365 134.618V137.277C13.4255 137.141 13.9199 136.721 13.9199 136.02ZM10.1807 131.774C10.1807 132.121 10.2832 132.399 10.4883 132.608C10.6934 132.818 11.0488 133.016 11.5547 133.203V130.558C11.1035 130.631 10.7617 130.774 10.5293 130.988C10.2969 131.198 10.1807 131.46 10.1807 131.774ZM23.7363 136.703H22.2529V139H21.166V136.703H16.3057V135.712L21.0498 128.951H22.2529V135.671H23.7363V136.703ZM21.166 135.671V132.349C21.166 131.697 21.1888 130.961 21.2344 130.141H21.1797C20.9609 130.578 20.7559 130.94 20.5645 131.228L17.4404 135.671H21.166ZM31.3311 133.989C31.3311 135.716 31.0576 137.006 30.5107 137.858C29.9684 138.711 29.1367 139.137 28.0156 139.137C26.9401 139.137 26.1221 138.701 25.5615 137.831C25.001 136.956 24.7207 135.675 24.7207 133.989C24.7207 132.248 24.9919 130.956 25.5342 130.113C26.0765 129.27 26.9036 128.849 28.0156 128.849C29.1003 128.849 29.9229 129.288 30.4834 130.168C31.0485 131.048 31.3311 132.321 31.3311 133.989ZM25.8691 133.989C25.8691 135.443 26.04 136.503 26.3818 137.168C26.7236 137.829 27.2682 138.159 28.0156 138.159C28.7721 138.159 29.319 137.824 29.6562 137.154C29.998 136.48 30.1689 135.425 30.1689 133.989C30.1689 132.554 29.998 131.503 29.6562 130.838C29.319 130.168 28.7721 129.833 28.0156 129.833C27.2682 129.833 26.7236 130.163 26.3818 130.824C26.04 131.48 25.8691 132.535 25.8691 133.989Z" fill="#9C9CA1"/>
<path d="M15.082 173.931C15.082 174.55 14.8496 175.063 14.3848 175.469C13.9199 175.87 13.2705 176.123 12.4365 176.228V177.813H11.5547V176.289C11.0443 176.289 10.5498 176.25 10.0713 176.173C9.59277 176.091 9.20085 175.979 8.89551 175.838V174.771C9.27376 174.94 9.70898 175.079 10.2012 175.188C10.6979 175.293 11.1491 175.346 11.5547 175.346V172.338C10.6204 172.042 9.96419 171.698 9.58594 171.306C9.21224 170.914 9.02539 170.408 9.02539 169.788C9.02539 169.191 9.25553 168.701 9.71582 168.318C10.1807 167.936 10.7936 167.703 11.5547 167.621V166.377H12.4365V167.607C13.2751 167.63 14.084 167.799 14.8633 168.113L14.5078 169.009C13.8288 168.74 13.1383 168.58 12.4365 168.53V171.497C13.152 171.725 13.6875 171.948 14.043 172.167C14.3984 172.381 14.6605 172.63 14.8291 172.912C14.9977 173.19 15.082 173.53 15.082 173.931ZM13.9199 174.02C13.9199 173.691 13.8174 173.427 13.6123 173.227C13.4118 173.021 13.0199 172.819 12.4365 172.618V175.277C13.4255 175.141 13.9199 174.721 13.9199 174.02ZM10.1807 169.774C10.1807 170.121 10.2832 170.399 10.4883 170.608C10.6934 170.818 11.0488 171.016 11.5547 171.203V168.558C11.1035 168.631 10.7617 168.774 10.5293 168.988C10.2969 169.198 10.1807 169.46 10.1807 169.774ZM23.2646 177H16.6953V176.022L19.3271 173.377C20.1292 172.566 20.6579 171.987 20.9131 171.641C21.1683 171.294 21.3597 170.957 21.4873 170.629C21.6149 170.301 21.6787 169.948 21.6787 169.569C21.6787 169.036 21.5169 168.615 21.1934 168.305C20.8698 167.99 20.4209 167.833 19.8467 167.833C19.432 167.833 19.0378 167.901 18.6641 168.038C18.2949 168.175 17.8825 168.423 17.4268 168.783L16.8252 168.011C17.7458 167.245 18.7484 166.862 19.833 166.862C20.7718 166.862 21.5078 167.104 22.041 167.587C22.5742 168.065 22.8408 168.71 22.8408 169.521C22.8408 170.155 22.6631 170.782 22.3076 171.401C21.9521 172.021 21.2868 172.805 20.3115 173.753L18.124 175.893V175.947H23.2646V177ZM31.3311 171.989C31.3311 173.716 31.0576 175.006 30.5107 175.858C29.9684 176.711 29.1367 177.137 28.0156 177.137C26.9401 177.137 26.1221 176.701 25.5615 175.831C25.001 174.956 24.7207 173.675 24.7207 171.989C24.7207 170.248 24.9919 168.956 25.5342 168.113C26.0765 167.27 26.9036 166.849 28.0156 166.849C29.1003 166.849 29.9229 167.288 30.4834 168.168C31.0485 169.048 31.3311 170.321 31.3311 171.989ZM25.8691 171.989C25.8691 173.443 26.04 174.503 26.3818 175.168C26.7236 175.829 27.2682 176.159 28.0156 176.159C28.7721 176.159 29.319 175.824 29.6562 175.154C29.998 174.48 30.1689 173.425 30.1689 171.989C30.1689 170.554 29.998 169.503 29.6562 168.838C29.319 168.168 28.7721 167.833 28.0156 167.833C27.2682 167.833 26.7236 168.163 26.3818 168.824C26.04 169.48 25.8691 170.535 25.8691 171.989Z" fill="#9C9CA1"/>
<path d="M23.082 211.931C23.082 212.55 22.8496 213.063 22.3848 213.469C21.9199 213.87 21.2705 214.123 20.4365 214.228V215.813H19.5547V214.289C19.0443 214.289 18.5498 214.25 18.0713 214.173C17.5928 214.091 17.2008 213.979 16.8955 213.838V212.771C17.2738 212.94 17.709 213.079 18.2012 213.188C18.6979 213.293 19.1491 213.346 19.5547 213.346V210.338C18.6204 210.042 17.9642 209.698 17.5859 209.306C17.2122 208.914 17.0254 208.408 17.0254 207.788C17.0254 207.191 17.2555 206.701 17.7158 206.318C18.1807 205.936 18.7936 205.703 19.5547 205.621V204.377H20.4365V205.607C21.2751 205.63 22.084 205.799 22.8633 206.113L22.5078 207.009C21.8288 206.74 21.1383 206.58 20.4365 206.53V209.497C21.152 209.725 21.6875 209.948 22.043 210.167C22.3984 210.381 22.6605 210.63 22.8291 210.912C22.9977 211.19 23.082 211.53 23.082 211.931ZM21.9199 212.02C21.9199 211.691 21.8174 211.427 21.6123 211.227C21.4118 211.021 21.0199 210.819 20.4365 210.618V213.277C21.4255 213.141 21.9199 212.721 21.9199 212.02ZM18.1807 207.774C18.1807 208.121 18.2832 208.399 18.4883 208.608C18.6934 208.818 19.0488 209.016 19.5547 209.203V206.558C19.1035 206.631 18.7617 206.774 18.5293 206.988C18.2969 207.198 18.1807 207.46 18.1807 207.774ZM31.3193 209.989C31.3193 211.716 31.0459 213.006 30.499 213.858C29.9567 214.711 29.125 215.137 28.0039 215.137C26.9284 215.137 26.1104 214.701 25.5498 213.831C24.9893 212.956 24.709 211.675 24.709 209.989C24.709 208.248 24.9801 206.956 25.5225 206.113C26.0648 205.27 26.8919 204.849 28.0039 204.849C29.0885 204.849 29.9111 205.288 30.4717 206.168C31.0368 207.048 31.3193 208.321 31.3193 209.989ZM25.8574 209.989C25.8574 211.443 26.0283 212.503 26.3701 213.168C26.7119 213.829 27.2565 214.159 28.0039 214.159C28.7604 214.159 29.3073 213.824 29.6445 213.154C29.9863 212.48 30.1572 211.425 30.1572 209.989C30.1572 208.554 29.9863 207.503 29.6445 206.838C29.3073 206.168 28.7604 205.833 28.0039 205.833C27.2565 205.833 26.7119 206.163 26.3701 206.824C26.0283 207.48 25.8574 208.535 25.8574 209.989Z" fill="#9C9CA1"/>
<defs>
<linearGradient id="paint0_linear_16155_3145" x1="352" y1="52" x2="352" y2="302.507" gradientUnits="userSpaceOnUse">
<stop stop-color="#F9861E"/>
<stop offset="1" stop-color="#F9861E" stop-opacity="0"/>
</linearGradient>
<linearGradient id="paint1_linear_16155_3145" x1="352" y1="52" x2="352" y2="208" gradientUnits="userSpaceOnUse">
<stop stop-color="#F9861E"/>
<stop offset="1" stop-color="#F9861E" stop-opacity="0"/>
</linearGradient>
<linearGradient id="paint2_linear_16155_3145" x1="352" y1="113" x2="352" y2="265.553" gradientUnits="userSpaceOnUse">
<stop stop-color="#00B3B5"/>
<stop offset="1" stop-color="#00B3B5" stop-opacity="0"/>
</linearGradient>
<linearGradient id="paint3_linear_16155_3145" x1="352" y1="113" x2="352" y2="208" gradientUnits="userSpaceOnUse">
<stop stop-color="#00B3B5"/>
<stop offset="1" stop-color="#00B3B5" stop-opacity="0"/>
</linearGradient>
<linearGradient id="paint4_linear_16155_3145" x1="3.55531e-06" y1="117.372" x2="596" y2="117.372" gradientUnits="userSpaceOnUse">
<stop stop-color="#141721"/>
<stop offset="0.067859" stop-color="#141721" stop-opacity="0"/>
<stop offset="0.938486" stop-color="#141721" stop-opacity="0"/>
<stop offset="1" stop-color="#141721"/>
</linearGradient>
<clipPath id="clip0_16155_3145">
<rect width="599" height="176" fill="white" transform="matrix(-1 0 0 1 653 32)"/>
</clipPath>
</defs>
</svg>
