<svg width="16" height="16" viewBox="0 0 16 16" fill="none" xmlns="http://www.w3.org/2000/svg">
<g clip-path="url(#clip0_15996_870)">
<path d="M10.5018 0C8.57136 0 6.99999 1.56853 6.99999 3.49897C6.99999 5.4294 8.57136 6.99982 10.5018 6.99982C12.4313 6.99982 14.0008 5.4294 14.0008 3.49897C14.0008 1.56853 12.4313 0 10.5018 0ZM10.5008 0.997815C10.6256 0.997815 10.7503 1.08097 10.7503 1.24821V1.78681C11.1793 1.89831 11.4996 2.2876 11.4996 2.75061C11.4996 2.81702 11.4732 2.88071 11.4263 2.92766C11.3793 2.97462 11.3156 3.001 11.2492 3.001C11.1828 3.001 11.1191 2.97462 11.0721 2.92766C11.0252 2.88071 10.9988 2.81702 10.9988 2.75061C10.9994 2.68503 10.987 2.61998 10.9623 2.55924C10.9376 2.4985 10.901 2.44327 10.8548 2.39677C10.8086 2.35026 10.7535 2.31341 10.6929 2.28834C10.6323 2.26328 10.5674 2.2505 10.5018 2.25075C10.4359 2.25025 10.3705 2.26286 10.3095 2.28785C10.2486 2.31284 10.1932 2.34971 10.1465 2.39631C10.0999 2.44292 10.0631 2.49832 10.0381 2.55931C10.0131 2.6203 10.0005 2.68564 10.001 2.75155C10.001 3.0303 10.2221 3.2514 10.5018 3.2514C10.7664 3.2524 11.0199 3.35811 11.2069 3.54543C11.3939 3.73275 11.4991 3.98645 11.4996 4.25111C11.4996 4.71411 11.1793 5.10435 10.7503 5.21585V5.74972C10.7503 6.08327 10.2504 6.08327 10.2504 5.74972V5.21585C10.0369 5.15996 9.84783 5.03524 9.71237 4.861C9.57691 4.68677 9.50267 4.47274 9.50114 4.25205C9.50114 4.18564 9.52752 4.12195 9.57448 4.07499C9.62144 4.02803 9.68513 4.00165 9.75154 4.00165C9.81795 4.00165 9.88164 4.02803 9.9286 4.07499C9.97555 4.12195 10.0019 4.18564 10.0019 4.25205C10.0019 4.5308 10.2221 4.7519 10.5018 4.7519C10.7805 4.7519 10.9998 4.5308 10.9998 4.25111C10.9998 3.97142 10.7805 3.75125 10.5018 3.75125C10.2367 3.75051 9.98266 3.645 9.79504 3.45774C9.60742 3.27047 9.50144 3.01663 9.50019 2.75155C9.50019 2.28855 9.82146 1.90019 10.2504 1.78775V1.24727C10.2504 1.08002 10.3752 0.997815 10.5008 0.997815ZM16.8392 6.29871C16.5369 6.29871 16.2317 6.41493 16.0021 6.64548L14.4184 8.22819C14.6263 8.51639 14.751 8.86789 14.751 9.24869C14.751 10.2144 13.9667 10.9986 13.001 10.9986H10.276C9.91312 11.0317 9.91312 10.4686 10.276 10.5007H13.001C13.6974 10.5007 14.2502 9.94602 14.2502 9.24963C14.2502 9.00396 14.1793 8.77907 14.0593 8.5882C13.9459 8.40978 13.7897 8.26255 13.6049 8.1599C13.42 8.05725 13.2125 8.00245 13.001 8.00047H7.75024C6.68817 8.00047 6.09855 8.54946 5.60531 9.0427L9.07593 12.5143C9.12979 12.5048 9.18649 12.5001 9.25074 12.5001H13.5009C14.3608 12.5001 15.0789 12.0749 15.5863 11.3388C16.1589 10.5092 17.2314 8.95766 17.7057 8.28678C17.8777 8.0411 17.9882 7.76141 17.9986 7.47038C18.0049 7.31816 17.9796 7.16628 17.9243 7.02431C17.869 6.88234 17.785 6.75336 17.6774 6.64548C17.5673 6.53539 17.4367 6.44809 17.2929 6.38858C17.149 6.32907 16.9949 6.29853 16.8392 6.29871ZM4.75018 8.99923C4.71753 8.99917 4.6852 9.00557 4.65504 9.01806C4.62487 9.03054 4.59748 9.04887 4.57443 9.07199L3.07392 10.5734C3.0505 10.5967 3.03191 10.6244 3.01922 10.6549C3.00653 10.6854 3 10.7181 3 10.7511C3 10.7841 3.00653 10.8168 3.01922 10.8473C3.03191 10.8778 3.0505 10.9054 3.07392 10.9287L7.07558 14.9275C7.1729 15.0239 7.3307 15.0239 7.42803 14.9275L8.92758 13.427C8.97403 13.3801 9.00009 13.3168 9.00009 13.2508C9.00009 13.1848 8.97403 13.1215 8.92758 13.0746L4.92687 9.07104C4.90365 9.0479 4.87609 9.02956 4.84577 9.01708C4.81545 9.00459 4.78297 8.99915 4.75018 8.99923Z" fill="#9C9CA1"/>
</g>
<defs>
<clipPath id="clip0_15996_870">
<rect width="16" height="16" fill="white"/>
</clipPath>
</defs>
</svg>
