<svg width="16" height="14" viewBox="0 0 16 14" fill="none" xmlns="http://www.w3.org/2000/svg">
<path d="M10.6906 3.02352C10.6906 4.69337 9.44978 6.04705 7.91908 6.04705C6.38839 6.04705 5.14752 4.69337 5.14752 3.02352C5.14752 1.35368 6.38839 0 7.91908 0C9.44978 0 10.6906 1.35368 10.6906 3.02352Z" fill="white"/>
<path d="M12.6705 10.7983C12.6705 12.4681 10.5433 13.8218 7.91928 13.8218C5.29524 13.8218 3.16803 12.4681 3.16803 10.7983C3.16803 9.12846 5.29524 7.77478 7.91928 7.77478C10.5433 7.77478 12.6705 9.12846 12.6705 10.7983Z" fill="white"/>
<path d="M4.05602 0.86499C4.19655 0.86499 4.33374 0.880032 4.46622 0.90867C4.14348 1.53401 3.95937 2.25588 3.95937 3.02465C3.95937 3.7747 4.13462 4.4801 4.44289 5.09478C4.31766 5.12023 4.18832 5.13357 4.05602 5.13357C2.93598 5.13357 2.02801 4.17801 2.02801 2.99928C2.02801 1.82054 2.93598 0.86499 4.05602 0.86499Z" fill="white"/>
<path d="M2.72986 12.947C2.28014 12.3605 1.97969 11.6408 1.97969 10.7994C1.97969 9.98373 2.26205 9.28247 2.68903 8.70605C1.18076 8.83367 0 9.73359 0 10.8248C0 11.9263 1.20151 12.8328 2.72986 12.947Z" fill="white"/>
<path d="M11.8779 3.02465C11.8779 3.7747 11.7027 4.4801 11.3944 5.09478C11.5197 5.12024 11.649 5.13357 11.7813 5.13357C12.9013 5.13357 13.8093 4.17801 13.8093 2.99928C13.8093 1.82054 12.9013 0.86499 11.7813 0.86499C11.6408 0.86499 11.5036 0.880032 11.3711 0.90867C11.6938 1.53402 11.8779 2.25588 11.8779 3.02465Z" fill="white"/>
<path d="M13.1075 12.947C14.6358 12.8328 15.8373 11.9263 15.8373 10.8248C15.8373 9.73359 14.6565 8.83367 13.1483 8.70605C13.5753 9.28247 13.8576 9.98373 13.8576 10.7994C13.8576 11.6408 13.5572 12.3605 13.1075 12.947Z" fill="white"/>
</svg>
