<svg width="54" height="25" viewBox="0 0 54 25" fill="none" xmlns="http://www.w3.org/2000/svg">
<path d="M1 17.0208C1 17.0208 1 15.9573 1 13.3358C2.47411 11.2715 3.43654 8.0354 5.09449 7.19408C6.75244 6.35276 6.76047 16.1869 8.91063 15.4984C11.0608 14.81 12.0455 6.55473 14.0703 4.49044C16.0951 2.42615 15.4258 7.93069 17.0185 7.24224C18.6112 6.55379 17.6963 0.515921 20.4581 1.73889C23.22 2.96187 25.1877 12.1351 28.075 12.1351C30.9622 12.1351 30.2862 2.96292 32.006 1.73889C33.7258 0.514867 32.2517 7.24224 34.9542 7.24224C37.6568 7.24224 38.9409 1.02831 41.4587 1.48588C43.9766 1.94344 42.4477 4.79523 45.0282 9.07669C46.0025 10.695 48.323 11.5015 49.5277 13.2758C51.0365 15.4993 51.5726 15.6251 53 17.7223V24.5382L1 24.3909V17.0208Z" fill="url(#paint0_linear_12677_44301)"/>
<path d="M1 13.4222C2.06122 11.0835 3.54055 8.02659 5.2046 7.19263C6.86864 6.35868 6.49964 16.0579 8.6577 15.3755C10.8158 14.6931 11.8041 6.51013 13.8363 4.46391C15.8685 2.4177 15.1968 7.87403 16.7954 7.19161C18.3939 6.50919 17.4757 0.524205 20.2476 1.73647C23.0196 2.94873 24.9946 12.0416 27.8925 12.0416C30.7903 12.0416 30.1119 2.94977 31.838 1.73647C33.5641 0.52316 32.0846 7.19161 34.797 7.19161C37.5095 7.19161 38.7983 1.03211 41.3254 1.48566C43.8525 1.93922 42.318 4.76604 44.9081 9.01C45.8859 10.6142 48.2149 11.4135 49.424 13.1723C50.9384 15.3764 50.8776 14.4616 53 17.8397" stroke="#00B3B5"/>
<defs>
<linearGradient id="paint0_linear_12677_44301" x1="26.4114" y1="-36.6321" x2="26.6392" y2="22.3066" gradientUnits="userSpaceOnUse">
<stop stop-color="#00B3B5"/>
<stop offset="0.515" stop-color="#00B3B5" stop-opacity="0.3"/>
<stop offset="1" stop-color="#00B3B5" stop-opacity="0"/>
</linearGradient>
</defs>
</svg>
