<svg width="156" height="20" viewBox="0 0 156 20" fill="none" xmlns="http://www.w3.org/2000/svg">
<g clip-path="url(#clip0_15996_847)">
<path d="M17.8289 20.0002H8.23242L13.0314 13.3334H17.8289V20.0002Z" fill="#F9861E"/>
<path d="M17.8288 13.3334H13.0312V20.0002H17.8288V13.3334Z" fill="#FFA143"/>
<path d="M5.74671 0L0.949219 6.66663V13.3332V19.9999H10.5442V13.3332V6.66663V0H5.74671Z" fill="#F9861E"/>
<path d="M10.5436 0H5.74609V19.9999H10.5436V0Z" fill="#FFA143"/>
<path d="M29.7461 6.92297H31.8568V17.7474H39.5341V19.608H29.7461V6.92297Z" fill="white"/>
<path d="M45.1016 19.6063V6.92126H47.2123V19.6063H45.1016Z" fill="white"/>
<path d="M53.3145 6.92302H60.5359C63.3277 6.92302 65.1775 8.29285 65.1775 10.3564C65.1775 11.878 64.0731 12.9778 62.435 13.0961C64.3509 13.1296 65.6332 14.3141 65.6332 16.0722C65.6332 18.187 63.8969 19.6063 61.283 19.6063H53.3145V6.92126V6.92302ZM60.6512 12.2506C62.0471 12.2506 62.972 11.5903 62.972 10.6106C62.972 9.51086 62.1605 8.7677 60.5377 8.7677H55.4421V12.2523H60.6512V12.2506ZM61.2847 17.7633C62.6162 17.7633 63.492 17.0361 63.492 15.954C63.492 14.8719 62.3553 14.0776 60.6512 14.0776H55.4421V17.7651H61.2847V17.7633Z" fill="white"/>
<path d="M71.4434 6.92297H81.7498V8.78354H73.5542V12.2682H80.874V14.1287H73.5542V17.7474H81.8802V19.608H71.4434V6.92297Z" fill="white"/>
<path d="M87.8184 19.6063V6.92126H94.9112C97.7672 6.92126 99.6832 8.59648 99.6832 11.1155C99.6832 12.9249 98.4651 14.2611 96.5018 14.6848L100.154 19.6063H97.525L94.0998 14.8366H89.9444V19.6063H87.8184ZM89.9444 12.9601H95.04C96.5323 12.9601 97.5233 12.2152 97.5233 11.0996C97.5233 9.71211 96.4849 8.79948 94.9094 8.79948H89.9426V12.9601H89.9444Z" fill="white"/>
<path d="M104.619 6.92297H117.327V8.78354H111.971V19.608H109.86V8.78354H104.617V6.92297H104.619Z" fill="white"/>
<path d="M122.113 6.92297H124.224V14.533C124.224 16.563 125.911 17.8145 128.427 17.8145C130.943 17.8145 132.533 16.563 132.533 14.533V6.92297H134.644V14.533C134.644 17.7456 132.146 19.894 128.395 19.894C124.644 19.894 122.113 17.7456 122.113 14.533V6.92297Z" fill="white"/>
<path d="M143.116 6.93891L143.134 6.92126L148.1 16.6125L152.986 6.92126H155.551V19.6063H153.44V10.1022L148.863 19.6063H147.255L142.565 9.98219V19.6063H140.453V6.92126L143.115 6.93891H143.116Z" fill="white"/>
</g>
<defs>
<clipPath id="clip0_15996_847">
<rect width="156" height="20" fill="white"/>
</clipPath>
</defs>
</svg>
