<svg width="17" height="16" viewBox="0 0 17 16" fill="none" xmlns="http://www.w3.org/2000/svg">
<path d="M15.6883 0.5L9.65649 5.01987L10.7719 2.35321L15.6883 0.5Z" fill="#E2761B" stroke="#E2761B" stroke-width="0.333098" stroke-linecap="round" stroke-linejoin="round"/>
<path d="M1.76367 0.5L7.74694 5.06268L6.68607 2.35321L1.76367 0.5Z" fill="#E4761B" stroke="#E4761B" stroke-width="0.333098" stroke-linecap="round" stroke-linejoin="round"/>
<path d="M13.5181 10.9771L11.9116 13.4603L15.3488 14.4144L16.3369 11.0322L13.5181 10.9771Z" fill="#E4761B" stroke="#E4761B" stroke-width="0.333098" stroke-linecap="round" stroke-linejoin="round"/>
<path d="M1.1272 11.0322L2.10925 14.4144L5.54645 13.4603L3.94 10.9771L1.1272 11.0322Z" fill="#E4761B" stroke="#E4761B" stroke-width="0.333098" stroke-linecap="round" stroke-linejoin="round"/>
<path d="M5.35234 6.78136L4.39453 8.24313L7.80748 8.39604L7.68624 4.69574L5.35234 6.78136Z" fill="#E4761B" stroke="#E4761B" stroke-width="0.333098" stroke-linecap="round" stroke-linejoin="round"/>
<path d="M12.0995 6.78133L9.7353 4.65289L9.65649 8.396L13.0634 8.2431L12.0995 6.78133Z" fill="#E4761B" stroke="#E4761B" stroke-width="0.333098" stroke-linecap="round" stroke-linejoin="round"/>
<path d="M5.54639 13.4602L7.59537 12.4511L5.82524 11.0566L5.54639 13.4602Z" fill="#E4761B" stroke="#E4761B" stroke-width="0.333098" stroke-linecap="round" stroke-linejoin="round"/>
<path d="M9.85645 12.4511L11.9115 13.4602L11.6266 11.0566L9.85645 12.4511Z" fill="#E4761B" stroke="#E4761B" stroke-width="0.333098" stroke-linecap="round" stroke-linejoin="round"/>
<path d="M11.9115 13.4603L9.85645 12.4512L10.0201 13.8029L10.0019 14.3717L11.9115 13.4603Z" fill="#D7C1B3" stroke="#D7C1B3" stroke-width="0.333098" stroke-linecap="round" stroke-linejoin="round"/>
<path d="M5.54663 13.4603L7.45618 14.3717L7.44406 13.8029L7.59561 12.4512L5.54663 13.4603Z" fill="#D7C1B3" stroke="#D7C1B3" stroke-width="0.333098" stroke-linecap="round" stroke-linejoin="round"/>
<path d="M7.48636 10.1637L5.77686 9.65606L6.98321 9.09949L7.48636 10.1637Z" fill="#233447" stroke="#233447" stroke-width="0.333098" stroke-linecap="round" stroke-linejoin="round"/>
<path d="M9.96582 10.1637L10.469 9.09949L11.6814 9.65606L9.96582 10.1637Z" fill="#233447" stroke="#233447" stroke-width="0.333098" stroke-linecap="round" stroke-linejoin="round"/>
<path d="M5.54639 13.4603L5.83737 10.9772L3.93994 11.0322L5.54639 13.4603Z" fill="#CD6116" stroke="#CD6116" stroke-width="0.333098" stroke-linecap="round" stroke-linejoin="round"/>
<path d="M11.6204 10.9772L11.9113 13.4603L13.5178 11.0322L11.6204 10.9772Z" fill="#CD6116" stroke="#CD6116" stroke-width="0.333098" stroke-linecap="round" stroke-linejoin="round"/>
<path d="M13.0629 8.24316L9.65601 8.39607L9.97123 10.1636L10.4744 9.09943L11.6868 9.656L13.0629 8.24316Z" fill="#CD6116" stroke="#CD6116" stroke-width="0.333098" stroke-linecap="round" stroke-linejoin="round"/>
<path d="M5.77668 9.656L6.9891 9.09943L7.48619 10.1636L7.80748 8.39607L4.39453 8.24316L5.77668 9.656Z" fill="#CD6116" stroke="#CD6116" stroke-width="0.333098" stroke-linecap="round" stroke-linejoin="round"/>
<path d="M4.39502 8.24316L5.82567 11.0566L5.77717 9.65601L4.39502 8.24316Z" fill="#E4751F" stroke="#E4751F" stroke-width="0.333098" stroke-linecap="round" stroke-linejoin="round"/>
<path d="M11.6876 9.65601L11.627 11.0566L13.0637 8.24316L11.6876 9.65601Z" fill="#E4751F" stroke="#E4751F" stroke-width="0.333098" stroke-linecap="round" stroke-linejoin="round"/>
<path d="M7.80811 8.39612L7.48682 10.1637L7.88691 12.2493L7.97784 9.50315L7.80811 8.39612Z" fill="#E4751F" stroke="#E4751F" stroke-width="0.333098" stroke-linecap="round" stroke-linejoin="round"/>
<path d="M9.65684 8.39612L9.49316 9.49703L9.56591 12.2493L9.97207 10.1637L9.65684 8.39612Z" fill="#E4751F" stroke="#E4751F" stroke-width="0.333098" stroke-linecap="round" stroke-linejoin="round"/>
<path d="M9.97183 10.1637L9.56567 12.2493L9.85665 12.4512L11.6268 11.0567L11.6874 9.65607L9.97183 10.1637Z" fill="#F6851B" stroke="#F6851B" stroke-width="0.333098" stroke-linecap="round" stroke-linejoin="round"/>
<path d="M5.77686 9.65607L5.82535 11.0567L7.59548 12.4512L7.88646 12.2493L7.48636 10.1637L5.77686 9.65607Z" fill="#F6851B" stroke="#F6851B" stroke-width="0.333098" stroke-linecap="round" stroke-linejoin="round"/>
<path d="M10.0025 14.3716L10.0207 13.8028L9.86913 13.6683H7.58373L7.4443 13.8028L7.45643 14.3716L5.54688 13.4603L6.2137 14.0108L7.56554 14.9588H9.88732L11.2452 14.0108L11.912 13.4603L10.0025 14.3716Z" fill="#C0AD9E" stroke="#C0AD9E" stroke-width="0.333098" stroke-linecap="round" stroke-linejoin="round"/>
<path d="M9.85655 12.4511L9.56557 12.2493H7.88638L7.5954 12.4511L7.44385 13.8028L7.58327 13.6682H9.86868L10.0202 13.8028L9.85655 12.4511Z" fill="#161616" stroke="#161616" stroke-width="0.333098" stroke-linecap="round" stroke-linejoin="round"/>
<path d="M15.9428 5.31345L16.458 2.81804L15.6882 0.5L9.85645 4.86696L12.0994 6.78133L15.2699 7.71711L15.9731 6.89143L15.67 6.67124L16.1549 6.22476L15.7791 5.93118L16.2641 5.55809L15.9428 5.31345Z" fill="#763D16" stroke="#763D16" stroke-width="0.333098" stroke-linecap="round" stroke-linejoin="round"/>
<path d="M1 2.81804L1.51528 5.31345L1.18792 5.55809L1.67289 5.93118L1.3031 6.22476L1.78807 6.67124L1.48497 6.89143L2.1821 7.71711L5.35257 6.78133L7.59553 4.86696L1.76382 0.5L1 2.81804Z" fill="#763D16" stroke="#763D16" stroke-width="0.333098" stroke-linecap="round" stroke-linejoin="round"/>
<path d="M15.27 7.71721L12.0995 6.78143L13.0634 8.2432L11.6267 11.0567L13.5181 11.0322H16.3369L15.27 7.71721Z" fill="#F6851B" stroke="#F6851B" stroke-width="0.333098" stroke-linecap="round" stroke-linejoin="round"/>
<path d="M5.35271 6.78143L2.18224 7.71721L1.12744 11.0322H3.94024L5.82555 11.0567L4.3949 8.2432L5.35271 6.78143Z" fill="#F6851B" stroke="#F6851B" stroke-width="0.333098" stroke-linecap="round" stroke-linejoin="round"/>
<path d="M9.65669 8.39613L9.85674 4.86709L10.7782 2.35333H6.68628L7.59559 4.86709L7.80776 8.39613L7.88051 9.50928L7.88657 12.2493H9.56576L9.57789 9.50928L9.65669 8.39613Z" fill="#F6851B" stroke="#F6851B" stroke-width="0.333098" stroke-linecap="round" stroke-linejoin="round"/>
</svg>
