<svg width="24" height="25" viewBox="0 0 24 25" fill="none" xmlns="http://www.w3.org/2000/svg">
<path d="M2.00018 4.875L4.37509 3.625L8.9999 6.25L11.4998 10.75V19.25L8.9999 20.5L4.37509 17.875L2.00018 13.875V4.875Z" fill="#CE022B"/>
<path d="M4.46857 8.10441L6.68635 7.13635L8.90413 10.0405V11.9767L4.46857 14.3V8.10441Z" fill="#7D0026"/>
<path d="M8.90394 16.2362L6.68616 17.3978L4.46838 14.3L8.90394 11.9767V16.2362Z" fill="#980028"/>
<path d="M9.87441 0.5L4.37463 3.625L8.99945 6.25L14.3742 3L9.87441 0.5Z" fill="#F8293A"/>
<path d="M11.5007 10.7501L9.00079 6.25012L14.3756 3.00012L17.1255 7.50012L11.5007 10.7501Z" fill="#980028"/>
<path d="M11.5008 19.25V10.75L17.1256 7.5L17.0006 16L11.5008 19.25Z" fill="#7C0025"/>
</svg>
