<svg width="20" height="20" viewBox="0 0 20 20" fill="none" xmlns="http://www.w3.org/2000/svg">
<path d="M8.90531 10.6534L7.63821 11.3266V9.94067L8.90531 10.6534Z" fill="#4743FF"/>
<path d="M11.9939 8.99036L7.63821 11.3266L12.271 13.9796L16.8643 11.287L11.9939 8.99036Z" fill="#7572FF"/>
<path d="M9.97464 0.833374L5.4606 3.48636L12.2713 7.44605L16.8645 4.75346L9.97464 0.833374Z" fill="#7572FF"/>
<path d="M3.12418 4.79302L5.46039 3.48633L12.271 7.44601L12.2314 12.6332L7.63821 9.98021V11.3265L12.271 13.9795L12.2314 19.1667L5.3812 15.2862L3.12418 11.4057V4.79302Z" fill="#232280"/>
<path d="M16.8643 10.1386L12.2314 12.6332L12.271 7.446L16.8643 4.75342V10.1386Z" fill="#4743FF"/>
<path d="M16.8643 16.6722L12.2314 19.1668L12.271 13.9796L16.8643 11.287V16.6722Z" fill="#4743FF"/>
</svg>
