<svg width="8" height="8" viewBox="0 0 8 8" fill="none" xmlns="http://www.w3.org/2000/svg">
<path d="M7.8056 3.66414L6 2.62254C5.94106 2.58794 5.87395 2.5697 5.8056 2.5697C5.73725 2.5697 5.67014 2.58794 5.6112 2.62254L2.392 4.48094C2.33241 4.51535 2.26481 4.53346 2.196 4.53346C2.12719 4.53346 2.05959 4.51535 2 4.48094L0.9752 3.88894C0.91619 3.85469 0.867189 3.80556 0.83308 3.74647C0.798971 3.68737 0.780946 3.62037 0.7808 3.55214V2.36494C0.780784 2.29668 0.798742 2.22961 0.832867 2.17049C0.866992 2.11137 0.916082 2.06227 0.9752 2.02814L2 1.43454C2.05921 1.40073 2.12622 1.38294 2.1944 1.38294C2.26258 1.38294 2.32959 1.40073 2.3888 1.43454L3.4168 2.02814C3.47608 2.06209 3.52531 2.11114 3.55946 2.1703C3.59361 2.22947 3.61146 2.29663 3.6112 2.36494V2.93534C3.61158 2.95216 3.61638 2.96859 3.62511 2.98297C3.63384 2.99736 3.6462 3.0092 3.66095 3.0173C3.67569 3.0254 3.69231 3.02949 3.70914 3.02914C3.72596 3.0288 3.7424 3.02404 3.7568 3.01534L4.292 2.70734C4.32149 2.69013 4.34595 2.66548 4.36293 2.63586C4.37992 2.60624 4.38884 2.57269 4.3888 2.53854V1.91534C4.38865 1.84711 4.37063 1.78011 4.33652 1.72101C4.30241 1.66192 4.25341 1.6128 4.1944 1.57854L2.3888 0.538542C2.32972 0.504339 2.26266 0.486328 2.1944 0.486328C2.12614 0.486328 2.05908 0.504339 2 0.538542L0.1944 1.57854C0.135391 1.6128 0.0863893 1.66192 0.0522803 1.72101C0.0181713 1.78011 0.000145707 1.84711 0 1.91534V4.00094C6.52248e-05 4.06919 0.018057 4.13622 0.0521741 4.19533C0.0862911 4.25444 0.135336 4.30355 0.1944 4.33774L2 5.37774C2.05908 5.41194 2.12614 5.42996 2.1944 5.42996C2.26266 5.42996 2.32972 5.41194 2.3888 5.37774L5.608 3.52094C5.66759 3.48654 5.73519 3.46842 5.804 3.46842C5.87281 3.46842 5.94041 3.48654 6 3.52094L7.0312 4.11454C7.08947 4.1493 7.13767 4.19864 7.17106 4.2577C7.20444 4.31676 7.22186 4.3835 7.2216 4.45134V5.63854C7.22186 5.70685 7.20401 5.77401 7.16986 5.83318C7.13571 5.89234 7.08648 5.9414 7.0272 5.97534L6 6.56734C5.94092 6.60154 5.87386 6.61955 5.8056 6.61955C5.73733 6.61955 5.67028 6.60154 5.6112 6.56734L4.5832 5.97374C4.52408 5.93961 4.47499 5.89051 4.44087 5.83139C4.40674 5.77227 4.38878 5.7052 4.3888 5.63694V5.06734C4.38859 5.0416 4.37821 5.01697 4.35993 4.99884C4.34165 4.98071 4.31695 4.97054 4.2912 4.97054C4.27434 4.97041 4.25775 4.97483 4.2432 4.98334L3.708 5.29214C3.67849 5.30927 3.65406 5.33392 3.6372 5.36357C3.62033 5.39323 3.61164 5.42683 3.612 5.46094V6.08654C3.61198 6.15471 3.62985 6.22169 3.66383 6.28079C3.6978 6.33989 3.74669 6.38905 3.8056 6.42334L5.6152 7.46334C5.67428 7.49754 5.74134 7.51555 5.8096 7.51555C5.87786 7.51555 5.94492 7.49754 6.004 7.46334L7.8096 6.42334C7.86866 6.38915 7.91771 6.34004 7.95183 6.28093C7.98594 6.22182 8.00393 6.15479 8.004 6.08654V4.00094C8.00353 3.9323 7.98493 3.865 7.9501 3.80586C7.91526 3.74672 7.86541 3.69783 7.8056 3.66414Z" fill="white"/>
</svg>
