<svg width="20" height="20" viewBox="0 0 20 20" fill="none" xmlns="http://www.w3.org/2000/svg">
<path d="M7.9092 11.4011L7.85704 17.2534L2.5 14.9794L2.55215 9.12708L7.9092 11.4011Z" fill="#EF7C14"/>
<path d="M7.90958 11.4012L10.924 9.45459L10.8718 15.3069L7.85742 17.2535L7.90958 11.4012Z" fill="#FFA143"/>
<path d="M2.55273 9.12713L5.56713 7.18054L10.9242 9.45457L7.90978 11.4012L2.55273 9.12713Z" fill="#FFB069"/>
<path d="M14.3799 14.1476L14.3281 19.9999L8.9707 17.7259L9.02286 11.8735L14.3799 14.1476Z" fill="#EF7C14"/>
<path d="M14.3799 14.1476L17.3943 12.201L17.3425 18.0538L14.3282 20L14.3799 14.1476Z" fill="#FFA143"/>
<path d="M9.02344 11.8736L12.0378 9.927L17.3949 12.201L14.3805 14.1476L9.02344 11.8736Z" fill="#FFB069"/>
<path d="M14.4444 6.96712L14.3926 12.8194L2.56445 7.79885L2.61661 1.94653L14.4444 6.96712Z" fill="#EF7C14"/>
<path d="M14.444 6.9671L17.4584 5.02051L17.4062 10.8732L14.3922 12.8194L14.444 6.9671Z" fill="#FFA143"/>
<path d="M2.61719 1.94659L5.63119 0L17.4594 5.02059L14.445 6.96718L2.61719 1.94659Z" fill="#FFB069"/>
</svg>
