<svg width="20" height="20" viewBox="0 0 20 20" fill="none" xmlns="http://www.w3.org/2000/svg">
<path d="M8.34594 4.42431L8.92595 4.27222L5.70369 6.13081L5.12369 6.2829L8.34594 4.42431Z" fill="#FF43F7"/>
<path d="M8.92556 4.27209L9.54939 4.27983L6.32714 6.141L5.70331 6.13069L8.92556 4.27209Z" fill="#FF43F7"/>
<path d="M9.5494 4.27991L10.1681 4.44489V4.48098L6.99222 6.31637L6.32715 6.14108L9.5494 4.27991Z" fill="#FF43F7"/>
<path d="M13.3907 0.833374L16.2057 2.45997L12.986 4.31856L10.1685 2.69197L13.3907 0.833374Z" fill="#FF72F9"/>
<path d="M16.2055 2.45996V17.3081L12.9858 19.1667V4.31856L16.2055 2.45996Z" fill="#FF43F7"/>
<path d="M10.2531 13.0083L10.1217 12.1267L10.0856 12.0442L9.72468 11.2219L9.61125 11.0672L9.14209 10.4305L9.06734 10.3686L8.44867 9.87624L7.80164 9.65713L7.68821 9.61846L7.07727 9.81696L6.75247 10.2655L6.6442 10.9228L6.75247 11.7065L7.07727 12.5314L7.68306 13.431L8.44867 14.0574L9.14983 14.3101L9.73241 14.1941L10.1242 13.7455L10.2531 13.0134V13.0083ZM12.9856 19.1666L10.1681 17.5401V16.5218L9.76335 16.7925L9.35605 16.9033L8.58787 16.808L7.72172 16.4239L7.00252 15.9341L6.32456 15.3231L5.68784 14.5859L5.08979 13.7275L4.48916 12.6216L4.05867 11.5028L3.80089 10.3686L3.71582 9.2189L3.80347 8.15427L4.06898 7.31133L4.50978 6.68493L5.12846 6.28021L5.70846 6.12812L6.32971 6.13843L6.99478 6.31372L7.7011 6.65141L8.52342 7.22884L9.29161 7.98414L9.72726 8.54868L10.1732 9.27304V2.68933L12.9908 4.31592V19.1641L12.9856 19.1666Z" fill="#BF32BA"/>
<path d="M9.76334 16.7951L10.1681 16.5219V16.5605L9.76334 16.7951Z" fill="#A3A3A3"/>
<path d="M7.69596 6.65404L6.99222 6.31635L10.1681 4.48096V5.22594L7.69596 6.65404Z" fill="#FF43F7"/>
<path d="M8.51827 7.23148L7.69595 6.65405L10.1681 5.22595V6.2777L8.51827 7.23148Z" fill="#FF43F7"/>
<path d="M9.28646 7.98679L8.51828 7.2315L10.1681 6.27771V7.47896L9.28646 7.98679Z" fill="#FF43F7"/>
<path d="M9.72209 8.55125L9.28644 7.98671L10.168 7.47888V8.29347L9.72209 8.55125Z" fill="#FF43F7"/>
<path d="M10.1685 9.2756L9.7225 8.55124L10.1685 8.29346V9.2756Z" fill="#FF43F7"/>
<path d="M10.1217 12.1267L10.2531 13.0083V13.0134L8.44868 14.0549L7.68307 13.431L10.0856 12.0442L10.1217 12.1267Z" fill="#FF43F7"/>
<path d="M7.07704 9.81444L7.68798 9.61853L7.80141 9.6572L6.74966 10.2656L7.07704 9.81444Z" fill="#FF43F7"/>
<path d="M6.64163 10.9229L6.7499 10.2656L7.80164 9.65723L8.44867 9.87376L6.64163 10.9229Z" fill="#FF43F7"/>
<path d="M6.7499 11.704L6.64163 10.9229L8.44867 9.87378L9.06734 10.3687L6.7499 11.704Z" fill="#FF43F7"/>
<path d="M7.07704 12.5314L6.74966 11.704L9.06711 10.3687L9.14187 10.4279L9.61103 11.0647L7.07704 12.5314Z" fill="#FF43F7"/>
<path d="M7.68342 13.4311L7.07764 12.5315L9.61162 11.0647L9.72762 11.2219L10.0859 12.0443L7.68342 13.4311Z" fill="#FF43F7"/>
<path d="M9.14747 14.3076L8.44888 14.055L10.2533 13.0135L10.1219 13.7456L9.14747 14.3076Z" fill="#FF43F7"/>
<path d="M9.72983 14.1916L9.14725 14.3076L10.1217 13.7456L9.72983 14.1916Z" fill="#FF43F7"/>
</svg>
