<svg width="16" height="15" viewBox="0 0 16 15" fill="none" xmlns="http://www.w3.org/2000/svg">
<path fill-rule="evenodd" clip-rule="evenodd" d="M7.42807 0.166016C4.188 0.166016 1.5614 3.10124 1.5614 6.39935C1.5614 9.67161 3.43384 13.2285 6.35525 14.5939C7.03628 14.9123 7.81986 14.9123 8.50089 14.5939C11.4223 13.2285 13.2947 9.67161 13.2947 6.39935C13.2947 3.10124 10.6681 0.166016 7.42807 0.166016ZM7.42807 7.49935C8.23809 7.49935 8.89473 6.8427 8.89473 6.03268C8.89473 5.22266 8.23809 4.56602 7.42807 4.56602C6.61805 4.56602 5.9614 5.22266 5.9614 6.03268C5.9614 6.8427 6.61805 7.49935 7.42807 7.49935Z" fill="#F9861E"/>
</svg>
