<svg width="16" height="9" viewBox="0 0 16 9" fill="none" xmlns="http://www.w3.org/2000/svg">
<g clip-path="url(#clip0_16155_8360)">
<path d="M12.5 5.00903L3.5 5.00903C3.22 5.00903 3 4.78903 3 4.50903C3 4.22903 3.22 4.00903 3.5 4.00903L12.5 4.00903C12.78 4.00903 13 4.22903 13 4.50903C13 4.78903 12.78 5.00903 12.5 5.00903Z" fill="white"/>
<path d="M10 8.50901C9.93442 8.50981 9.86941 8.49688 9.80913 8.47105C9.74885 8.44521 9.69465 8.40705 9.65 8.35901C9.45 8.15901 9.45 7.84901 9.65 7.64901L12.8 4.49901L9.65 1.34901C9.45 1.14901 9.45 0.839014 9.65 0.639014C9.85 0.439014 10.16 0.439014 10.36 0.639014L13.86 4.13901C14.06 4.33901 14.06 4.64901 13.86 4.84901L10.36 8.34901C10.26 8.44901 10.13 8.49901 10.01 8.49901L10 8.50901Z" fill="white"/>
</g>
<defs>
<clipPath id="clip0_16155_8360">
<rect width="16" height="9" fill="white" transform="translate(0 0.0090332)"/>
</clipPath>
</defs>
</svg>
