<svg width="20" height="20" viewBox="0 0 20 20" fill="none" xmlns="http://www.w3.org/2000/svg">
<path d="M2.00018 4.375L4.37509 3.125L8.9999 5.75L11.4998 10.25V18.75L8.9999 20L4.37509 17.375L2.00018 13.375V4.375Z" fill="#CE022B"/>
<path d="M4.46857 7.60441L6.68635 6.63635L8.90413 9.54054V11.4767L4.46857 13.8V7.60441Z" fill="#7D0026"/>
<path d="M8.90394 15.7362L6.68616 16.8978L4.46838 13.8L8.90394 11.4767V15.7362Z" fill="#980028"/>
<path d="M9.87441 0L4.37463 3.125L8.99945 5.75L14.3742 2.5L9.87441 0Z" fill="#F8293A"/>
<path d="M11.5007 10.2501L9.00076 5.75012L14.3755 2.50012L17.1254 7.00012L11.5007 10.2501Z" fill="#980028"/>
<path d="M11.5008 18.75V10.25L17.1256 7L17.0006 15.5L11.5008 18.75Z" fill="#7C0025"/>
</svg>
