<svg width="26" height="24" viewBox="0 0 26 24" fill="none" xmlns="http://www.w3.org/2000/svg">
<path fill-rule="evenodd" clip-rule="evenodd" d="M8.23738 0.173097C7.45272 0.293076 6.66887 1.16477 6.66887 1.91732C6.66887 2.16222 6.92698 2.59793 7.2428 2.88566C7.76092 3.35816 8.28149 3.40895 12.62 3.41197C15.9604 3.41444 17.771 3.53085 18.5652 3.79415C22.993 5.26217 24.188 10.8454 20.7299 13.9072C19.1097 15.3418 18.279 15.4892 11.8419 15.4859C6.47175 15.4832 5.90953 15.437 5.03529 14.9291C2.18849 13.2749 2.86208 9.64813 6.1837 8.74623C6.82052 8.57354 9.25211 8.48869 12.1289 8.53949C16.398 8.61471 17.0566 8.68638 17.4824 9.12236C17.9482 9.59953 17.9466 9.6355 17.4394 10.0147C17.0288 10.3216 15.8896 10.4097 12.3344 10.4097C8.12086 10.4097 7.71464 10.4534 7.2134 10.9588C6.49081 11.6875 6.51858 12.7434 7.27412 13.2769C7.76827 13.6261 8.77865 13.7032 12.7875 13.6983C18.7784 13.6909 19.6842 13.4183 20.5924 11.3479C21.3937 9.52101 21.1155 7.891 19.7713 6.53554C18.4865 5.23966 17.4609 5.09799 10.4299 5.24268C4.63615 5.36211 3.39136 5.66247 1.87839 7.30456C-0.775915 10.1857 -0.591594 14.8929 2.26908 17.2834C4.04179 18.7646 5.3552 18.9686 12.4504 18.8643C18.3683 18.7775 18.8913 18.7283 20.4098 18.1175C22.6211 17.2279 24.6247 15.1916 25.4363 13.0095C26.2713 10.7644 26.1665 7.33146 25.2024 5.35168C23.9683 2.81785 21.877 1.21227 18.7356 0.387247C17.2591 -0.000419259 10.3003 -0.142362 8.23738 0.173097ZM6.77941 21.2232C6.69964 21.4324 6.67295 22.1427 6.71978 22.8019L6.805 24H11.7058H16.6065L16.6882 22.4213L16.7699 20.8427H11.8471C7.90277 20.8427 6.8954 20.9182 6.77941 21.2232Z" fill="#0BAE6E"/>
</svg>
