<svg width="16" height="15" viewBox="0 0 16 15" fill="none" xmlns="http://www.w3.org/2000/svg">
<path fill-rule="evenodd" clip-rule="evenodd" d="M3.85706 12.3007C3.85706 12.1019 4.01823 11.9407 4.21706 11.9407H11.8971C12.0959 11.9407 12.2571 12.1019 12.2571 12.3007C12.2571 12.4995 12.0959 12.6607 11.8971 12.6607H4.21706C4.01823 12.6607 3.85706 12.4995 3.85706 12.3007Z" fill="#F9861E"/>
<path d="M7.82606 8.90634L7.82607 8.90633L10.6661 6.06632C10.2796 5.90545 9.82175 5.64119 9.38878 5.20822C8.95574 4.77518 8.69147 4.3173 8.5306 3.93074L5.69054 6.7708L5.69053 6.77081C5.46891 6.99243 5.35809 7.10325 5.26279 7.22543C5.15037 7.36957 5.05399 7.52552 4.97535 7.69053C4.90868 7.83041 4.85912 7.97909 4.76001 8.27644L4.23734 9.84444C4.18856 9.99076 4.22665 10.1521 4.33571 10.2612C4.44478 10.3702 4.60611 10.4083 4.75243 10.3595L6.32044 9.83686C6.61778 9.73775 6.76646 9.68819 6.90634 9.62152C7.07135 9.54288 7.2273 9.4465 7.37144 9.33408C7.49362 9.23878 7.60444 9.12796 7.82606 8.90634Z" fill="#F9861E"/>
<path d="M11.4541 5.27825C12.0439 4.68854 12.0439 3.73243 11.4541 3.14272C10.8644 2.55301 9.90833 2.55301 9.31862 3.14272L8.97799 3.48335C8.98266 3.49743 8.9875 3.51171 8.99252 3.52618C9.11737 3.88604 9.35293 4.35779 9.79607 4.80093C10.2392 5.24407 10.711 5.47963 11.0708 5.60448C11.0852 5.60948 11.0994 5.6143 11.1135 5.61894L11.4541 5.27825Z" fill="#F9861E"/>
</svg>
