<svg width="16" height="9" viewBox="0 0 16 9" fill="none" xmlns="http://www.w3.org/2000/svg">
<g clip-path="url(#clip0_16155_8344)">
<path d="M3.5 4.00903L12.5 4.00903C12.78 4.00903 13 4.22903 13 4.50903C13 4.78903 12.78 5.00903 12.5 5.00903L3.5 5.00903C3.22 5.00903 3 4.78903 3 4.50903C3 4.22903 3.22 4.00903 3.5 4.00903Z" fill="white"/>
<path d="M6 0.509052C6.06557 0.508253 6.13059 0.521186 6.19087 0.54702C6.25115 0.572853 6.30535 0.611015 6.35 0.659052C6.55 0.859052 6.55 1.16905 6.35 1.36905L3.2 4.51905L6.35 7.66905C6.55 7.86905 6.55 8.17905 6.35 8.37905C6.15 8.57905 5.84 8.57905 5.64 8.37905L2.14 4.87905C1.94 4.67905 1.94 4.36905 2.14 4.16905L5.64 0.669053C5.74 0.569053 5.87 0.519053 5.99 0.519053L6 0.509052Z" fill="white"/>
</g>
<defs>
<clipPath id="clip0_16155_8344">
<rect width="16" height="9" fill="white" transform="translate(16 9.00903) rotate(180)"/>
</clipPath>
</defs>
</svg>
