<svg width="20" height="20" viewBox="0 0 20 20" fill="none" xmlns="http://www.w3.org/2000/svg">
<path d="M10.0861 17.2657V17.4555L6.90836 19.2903V14.2087L7.47201 15.0887L8.10757 15.8537L8.81789 16.5065L9.59724 17.0357L10.0861 17.2657Z" fill="#00B3B5"/>
<path d="M16.5974 13.2023L16.3903 14.1743L13.2097 16.0119L13.4167 15.0399L16.5974 13.2023Z" fill="#43DDFF"/>
<path d="M14.4348 5.44031L15.0962 6.33469L11.9156 8.16946L11.2541 7.27796L14.4348 5.44031Z" fill="#43DDFF"/>
<path d="M16.666 11.9915L16.597 13.2022L13.4164 15.0398L13.4854 13.8291L16.666 11.9915Z" fill="#43DDFF"/>
<path d="M6.5205 0.706787L9.8277 2.61345L6.64704 4.4511L3.33984 2.54156L6.5205 0.706787Z" fill="#43DDFF"/>
<path d="M15.0962 6.33472L15.6541 7.37001L12.4735 9.20766L11.9156 8.16949L15.0962 6.33472Z" fill="#43DDFF"/>
<path d="M11.0875 3.57117L11.8985 3.6862L8.72075 5.52385L7.90689 5.40594L11.0875 3.57117Z" fill="#43DDFF"/>
<path d="M16.3903 14.1743L16.0452 14.9105L12.8646 16.7482L13.2097 16.012L16.3903 14.1743Z" fill="#43DDFF"/>
<path d="M15.6538 7.37012L16.0967 8.49169L12.916 10.3265L12.4731 9.20777L15.6538 7.37012Z" fill="#43DDFF"/>
<path d="M12.7956 4.08582L13.6669 4.69261L10.4863 6.52738L9.6149 5.92346L12.7956 4.08582Z" fill="#43DDFF"/>
<path d="M16.0973 8.49158L16.4137 9.63615L13.233 11.4709L12.9167 10.3264L16.0973 8.49158Z" fill="#43DDFF"/>
<path d="M10.4834 3.73509L11.0873 3.57117L7.90664 5.40594L7.3056 5.56986L9.82769 4.1147L10.4834 3.73509Z" fill="#43DDFF"/>
<path d="M16.4131 9.63623L16.6029 10.8038L13.4222 12.6386L13.2324 11.471L16.4131 9.63623Z" fill="#43DDFF"/>
<path d="M16.6035 10.8038L16.6668 11.9915L13.4861 13.8292L13.4229 12.6386L16.6035 10.8038Z" fill="#43DDFF"/>
<path d="M9.82769 2.61353V4.1147L7.30561 5.56987L6.64703 6.02425V4.45117L9.82769 2.61353Z" fill="#00B3B5"/>
<path d="M11.8983 3.68616L12.7956 4.0859L9.6149 5.92355L8.72052 5.52381L11.8983 3.68616Z" fill="#43DDFF"/>
<path d="M13.6673 4.69263L14.4352 5.44034L11.2545 7.27799L10.4867 6.5274L13.6673 4.69263Z" fill="#43DDFF"/>
<path d="M16.0452 14.9104L15.5621 15.4079L12.3843 17.2456L12.8646 16.748L16.0452 14.9104Z" fill="#43DDFF"/>
<path d="M7.84051 8.04588L7.33436 8.21268L6.99502 8.81947L6.88286 9.93817L6.9979 11.1058L7.343 12.0778L7.86352 12.837L8.50483 13.3604L9.07135 13.5387L9.53724 13.369L9.60913 13.2281L9.84783 12.7593L9.86508 12.5753L9.95136 11.632V11.6234L9.86221 10.6255L9.84495 10.4414L9.56888 9.62183L9.51998 9.47516L9.03972 8.74183L9.00522 8.71307L8.46168 8.25582L8.15111 8.15229L7.83763 8.04876L7.84051 8.04588ZM8.72051 5.52378L9.61777 5.92352L10.4891 6.52744L11.2541 7.27803L11.9184 8.17241L12.4763 9.20771L12.9192 10.3293L13.2327 11.4739L13.4225 12.6414L13.4858 13.832L13.4167 15.0428L13.2097 16.0148L12.8646 16.751L12.3814 17.2485L11.7948 17.5217L11.1333 17.5763L10.4029 17.4153L10.0865 17.2686L9.59476 17.0386L8.81542 16.5094L8.10508 15.8595L7.46952 15.0945L6.90587 14.2145V19.2932L3.33984 17.2341V2.54443L6.64704 4.45398V6.02705L7.30561 5.57555L7.90665 5.41163L8.72051 5.52953V5.52378Z" fill="#226F80"/>
<path d="M7.3311 8.2127L7.84012 8.0459L8.15071 8.14943L6.99463 8.8195L7.3311 8.2127Z" fill="#00B3B5"/>
<path d="M6.99789 11.1029L6.87997 9.93531L9.00521 8.71021L9.03684 8.73897L9.51998 9.46942L9.56888 9.61609L6.99789 11.1029Z" fill="#00B3B5"/>
<path d="M7.34012 12.0749L6.99789 11.1029L9.56888 9.61609L9.84495 10.4357L9.8622 10.6197L7.34012 12.0749Z" fill="#00B3B5"/>
<path d="M8.50507 13.3575L7.86377 12.8341L9.9516 11.6262L9.86533 12.5724L8.50507 13.3575Z" fill="#00B3B5"/>
<path d="M7.86389 12.8341L7.34048 12.0749L9.86257 10.6198L9.9546 11.6205L9.95172 11.6263L7.86389 12.8341Z" fill="#00B3B5"/>
<path d="M9.53723 13.3691L9.07135 13.5387L9.60913 13.2281L9.53723 13.3691Z" fill="#00B3B5"/>
<path d="M9.07156 13.5387L8.50504 13.3575L9.86529 12.5724L9.84804 12.7564L9.60934 13.2281L9.07156 13.5387Z" fill="#00B3B5"/>
<path d="M6.87997 9.9353L6.99501 8.81948L8.1511 8.14941L8.46168 8.25294L9.00521 8.7102L6.87997 9.9353Z" fill="#00B3B5"/>
</svg>
