<svg width="20" height="20" viewBox="0 0 20 20" fill="none" xmlns="http://www.w3.org/2000/svg">
<path d="M9.25186 10.3382L8.73122 10.6022L8.46113 11.0938L8.26589 11.866L8.11295 14.2417V18.3333L4.0975 15.984V3.77515L7.83636 5.96283V7.96244L8.38629 7.18701L8.95249 6.82735L9.59353 6.83725L10.3712 7.17051L11.2954 7.87334L12.3041 8.94574L11.0676 11.5558L10.1695 10.7507L9.94822 10.556L9.58051 10.4405L9.25186 10.3382Z" fill="#BF9732"/>
<path d="M8.7312 10.6021L9.25185 10.3381L9.5805 10.4404L8.46112 11.0938L8.7312 10.6021Z" fill="#E6C40F"/>
<path d="M11.0676 11.5557L12.3041 8.94565L15.9031 6.84045L14.6665 9.4505L11.7737 11.1432L11.0676 11.5557Z" fill="#E6C40F"/>
<path d="M15.9033 6.84059L12.3043 8.94578L11.2956 7.87339L14.8945 5.76489L15.9033 6.84059Z" fill="#FFD812"/>
<path d="M8.46114 11.0938L9.58052 10.4404L9.94822 10.5559L10.1695 10.7506L8.2659 11.8659L8.46114 11.0938Z" fill="#E6C40F"/>
<path d="M8.26588 11.8659L10.1695 10.7506L11.0676 11.5557L11.7737 11.1433L11.7119 12.1332L8.11295 14.2417L8.26588 11.8659Z" fill="#E6C40F"/>
<path d="M11.7119 12.1332V16.2281L8.11295 18.3333V14.2417L11.7119 12.1332Z" fill="#E6C40F"/>
<path d="M4.0975 3.77512L7.69644 1.66663L11.4353 3.85761L7.83636 5.96281L4.0975 3.77512Z" fill="#FFD812"/>
<path d="M13.9702 5.06531L14.8943 5.76484L11.2954 7.87333L10.3712 7.1705L13.9702 5.06531Z" fill="#FFD812"/>
<path d="M13.9706 5.06532L10.3716 7.17052L9.59393 6.83725L13.1929 4.73206L13.9706 5.06532Z" fill="#FFD812"/>
<path d="M9.59352 6.83726L8.95248 6.82736L11.4353 5.3755L12.5514 4.72217L13.1925 4.73207L9.59352 6.83726Z" fill="#FFD812"/>
<path d="M8.95225 6.82725L8.38605 7.18692L7.83612 7.96234V5.96274L11.4351 3.85754V5.3754L8.95225 6.82725Z" fill="#E6C40F"/>
</svg>
