<svg width="20" height="20" viewBox="0 0 20 20" fill="none" xmlns="http://www.w3.org/2000/svg">
<path d="M6.75293 8.91791L7.70779 8.85425L7.77145 9.42716L7.00756 9.74545L6.75293 8.91791Z" fill="#FF2424"/>
<path d="M4.2069 9.68176L2.36084 10.382L8.21732 14.1378L9.55413 12.9283L4.2069 9.68176Z" fill="#FF5A5A"/>
<path d="M11.4639 8.02661L6.94418 9.74536L12.8007 13.5011L17.6386 10.4456L11.4639 8.02661Z" fill="#FF5A5A"/>
<path d="M2.36084 4.90748L4.84348 3.57068L13.0553 8.40864L12.928 12.4191L7.07149 9.04522V9.74545L12.928 13.0556V17.8936L10.5726 19.1667L2.36084 14.5198V10.382L8.15366 13.7559V13.0556L2.36084 9.74545V4.90748Z" fill="#BF1B1B"/>
<path d="M13.0556 8.40861L4.84375 3.57064L9.36343 0.833374L17.6389 5.60768L13.0556 8.40861Z" fill="#FF5A5A"/>
<path d="M17.6386 10.4457L12.928 13.0556V17.8936L17.6386 15.1563V10.4457Z" fill="#FF2424"/>
<path d="M17.6386 9.68174L12.928 12.419L13.0553 8.40859L17.6386 5.60767V9.68174Z" fill="#FF2424"/>
</svg>
