<svg width="32" height="33" viewBox="0 0 32 33" fill="none" xmlns="http://www.w3.org/2000/svg">
<rect y="0.5" width="32" height="32" rx="16" fill="#191C26"/>
<rect x="0.3" y="0.8" width="31.4" height="31.4" rx="15.7" stroke="white" stroke-opacity="0.1" stroke-width="0.6"/>
<path fill-rule="evenodd" clip-rule="evenodd" d="M19.3993 14.4782C19.2926 14.2986 19.1717 14.1279 19.0378 13.9677C19.0233 13.9514 19.0123 13.9323 19.0053 13.9117C18.9984 13.891 18.9956 13.8692 18.9973 13.8475C18.9989 13.8257 19.0049 13.8045 19.0148 13.7851C19.0248 13.7658 19.0385 13.7486 19.0553 13.7346C19.072 13.7206 19.0913 13.7101 19.1122 13.7038C19.133 13.6974 19.155 13.6953 19.1766 13.6975C19.1983 13.6998 19.2193 13.7064 19.2384 13.7169C19.2575 13.7274 19.2743 13.7417 19.2878 13.7588C19.4348 13.9348 19.5652 14.1193 19.6796 14.3113C19.7017 14.3484 19.7082 14.3929 19.6975 14.4348C19.6869 14.4768 19.66 14.5128 19.6229 14.5349C19.5857 14.557 19.5413 14.5635 19.4993 14.5528C19.4574 14.5422 19.4214 14.5153 19.3993 14.4782ZM19.8592 15.6369C19.8137 15.4332 19.7522 15.2333 19.6754 15.0391C19.6675 15.0192 19.6636 14.998 19.6639 14.9766C19.6642 14.9551 19.6687 14.934 19.6772 14.9143C19.6857 14.8947 19.698 14.8769 19.7134 14.862C19.7287 14.8471 19.7469 14.8353 19.7668 14.8274C19.7867 14.8195 19.808 14.8156 19.8294 14.816C19.8508 14.8163 19.8719 14.8208 19.8916 14.8293C19.9112 14.8378 19.929 14.8501 19.9439 14.8654C19.9589 14.8808 19.9706 14.899 19.9785 14.9189C20.0623 15.1301 20.1284 15.3465 20.1773 15.5662C20.1858 15.6081 20.1776 15.6516 20.1543 15.6874C20.1311 15.7232 20.0947 15.7485 20.053 15.7578C20.0113 15.767 19.9676 15.7596 19.9314 15.737C19.8951 15.7144 19.8692 15.6785 19.8592 15.6369ZM19.9355 16.8818C19.9553 16.6738 19.9589 16.4649 19.9462 16.2563C19.9445 16.2347 19.9472 16.213 19.954 16.1925C19.9608 16.1719 19.9716 16.153 19.9858 16.1366C20 16.1203 20.0173 16.107 20.0367 16.0974C20.0561 16.0879 20.0772 16.0823 20.0988 16.0809C20.1204 16.0796 20.142 16.0826 20.1624 16.0897C20.1828 16.0969 20.2016 16.108 20.2177 16.1225C20.2338 16.1369 20.2468 16.1545 20.2561 16.174C20.2653 16.1936 20.2706 16.2148 20.2715 16.2364C20.2855 16.4619 20.2816 16.6882 20.2598 16.9131C20.2583 16.9348 20.2525 16.956 20.2426 16.9754C20.2328 16.9949 20.2192 17.0121 20.2026 17.0262C20.1859 17.0403 20.1667 17.0509 20.1459 17.0574C20.1251 17.0639 20.1032 17.0662 20.0815 17.0641C20.0599 17.062 20.0388 17.0556 20.0197 17.0452C20.0005 17.0349 19.9836 17.0208 19.97 17.0038C19.9564 16.9868 19.9463 16.9672 19.9404 16.9463C19.9344 16.9253 19.9328 16.9034 19.9355 16.8818ZM19.6222 18.0888C19.7063 17.8965 19.7744 17.6989 19.8266 17.4978C19.8374 17.456 19.8645 17.4202 19.9017 17.3983C19.939 17.3763 19.9834 17.3701 20.0253 17.381C20.0671 17.3918 20.1029 17.4189 20.1248 17.4561C20.1468 17.4934 20.153 17.5378 20.1421 17.5796C20.0857 17.7974 20.0117 18.0115 19.9208 18.2195C19.9124 18.2394 19.9001 18.2574 19.8847 18.2724C19.8693 18.2875 19.851 18.2994 19.831 18.3074C19.811 18.3153 19.7895 18.3193 19.768 18.3189C19.7464 18.3185 19.7251 18.3139 19.7054 18.3052C19.6856 18.2966 19.6678 18.2841 19.6529 18.2685C19.638 18.2529 19.6263 18.2345 19.6186 18.2144C19.6109 18.1942 19.6072 18.1728 19.6078 18.1512C19.6084 18.1297 19.6133 18.1084 19.6222 18.0888ZM18.9472 19.1371C19.0883 18.9793 19.2148 18.8131 19.3266 18.6397C19.3379 18.6211 19.3528 18.605 19.3705 18.5923C19.3881 18.5796 19.4081 18.5705 19.4293 18.5657C19.4505 18.5608 19.4725 18.5603 19.4939 18.564C19.5153 18.5678 19.5358 18.5758 19.5541 18.5876C19.5723 18.5994 19.5881 18.6147 19.6003 18.6327C19.6126 18.6506 19.6211 18.6709 19.6254 18.6922C19.6298 18.7135 19.6298 18.7355 19.6255 18.7568C19.6212 18.7781 19.6126 18.7984 19.6004 18.8163C19.4798 19.0038 19.3429 19.184 19.1897 19.3545C19.1757 19.3714 19.1584 19.3853 19.1389 19.3954C19.1194 19.4055 19.0981 19.4115 19.0762 19.4131C19.0543 19.4148 19.0323 19.4119 19.0116 19.4049C18.9908 19.3978 18.9717 19.3866 18.9553 19.3719C18.939 19.3573 18.9258 19.3395 18.9165 19.3196C18.9072 19.2997 18.902 19.2782 18.9012 19.2562C18.9005 19.2343 18.9041 19.2124 18.912 19.192C18.9199 19.1715 18.9319 19.1528 18.9472 19.1371Z" fill="white"/>
<path fill-rule="evenodd" clip-rule="evenodd" d="M16.0001 22.0413C12.9416 22.0413 10.4588 19.5585 10.4588 16.5001C10.4588 13.4416 12.9416 10.9588 16.0001 10.9588C19.0585 10.9588 21.5413 13.4416 21.5413 16.5001C21.5413 19.5585 19.0585 22.0413 16.0001 22.0413ZM16.326 21.3787C18.8727 21.2108 20.8894 19.0891 20.8894 16.5001C20.8894 13.911 18.8727 11.7893 16.326 11.6215V21.3787ZM15.0747 25.0274V23.5287C15.0811 23.2875 15.1814 23.0584 15.3542 22.89C15.5271 22.7217 15.7588 22.6275 16.0001 22.6275C16.2413 22.6275 16.473 22.7217 16.6459 22.89C16.8187 23.0584 16.919 23.2875 16.9254 23.5287V25.0274C16.919 25.2686 16.8187 25.4978 16.6459 25.6661C16.473 25.8344 16.2413 25.9286 16.0001 25.9286C15.7588 25.9286 15.5271 25.8344 15.3542 25.6661C15.1814 25.4978 15.0811 25.2686 15.0747 25.0274ZM21.3754 23.1841L20.3157 22.1245C19.9546 21.7633 19.9546 21.1769 20.3157 20.8157C20.6769 20.4546 21.2633 20.4546 21.6244 20.8157L22.6841 21.8754C23.0453 22.2366 23.0453 22.823 22.6841 23.1841C22.323 23.5453 21.7366 23.5453 21.3754 23.1841ZM24.5274 17.4255H23.0287C22.7875 17.4191 22.5583 17.3188 22.39 17.1459C22.2217 16.9731 22.1275 16.7413 22.1275 16.5001C22.1275 16.2588 22.2217 16.0271 22.39 15.8542C22.5583 15.6814 22.7875 15.5811 23.0287 15.5747H24.5274C24.7686 15.5811 24.9977 15.6814 25.1661 15.8542C25.3344 16.0271 25.4286 16.2588 25.4286 16.5001C25.4286 16.7413 25.3344 16.9731 25.1661 17.1459C24.9977 17.3188 24.7686 17.4191 24.5274 17.4255ZM22.6841 11.1247L21.6244 12.1844C21.2633 12.5456 20.6769 12.5456 20.3157 12.1844C19.9546 11.8232 19.9546 11.2368 20.3157 10.8757L21.3754 9.81599C21.7366 9.45483 22.323 9.45483 22.6841 9.81599C23.0453 10.1771 23.0453 10.7635 22.6841 11.1247ZM16.9254 7.9727V9.47145C16.919 9.71263 16.8187 9.94178 16.6459 10.1101C16.473 10.2784 16.2413 10.3726 16.0001 10.3726C15.7588 10.3726 15.5271 10.2784 15.3542 10.1101C15.1814 9.94178 15.0811 9.71263 15.0747 9.47145V7.9727C15.0811 7.73152 15.1814 7.50237 15.3542 7.33405C15.5271 7.16573 15.7588 7.07154 16.0001 7.07154C16.2413 7.07154 16.473 7.16573 16.6459 7.33405C16.8187 7.50237 16.919 7.73152 16.9254 7.9727ZM10.6247 9.81599L11.6844 10.8757C12.0455 11.2368 12.0455 11.8232 11.6844 12.1844C11.3232 12.5456 10.7368 12.5456 10.3757 12.1844L9.31598 11.1247C8.95482 10.7635 8.95482 10.1771 9.31598 9.81599C9.67714 9.45483 10.2635 9.45483 10.6247 9.81599ZM7.47269 15.5747H8.97144C9.21262 15.5811 9.44177 15.6814 9.61009 15.8542C9.7784 16.0271 9.87259 16.2588 9.87259 16.5001C9.87259 16.7413 9.7784 16.9731 9.61009 17.1459C9.44177 17.3188 9.21262 17.4191 8.97144 17.4255H7.47269C7.23151 17.4191 7.00236 17.3188 6.83404 17.1459C6.66572 16.9731 6.57153 16.7413 6.57153 16.5001C6.57153 16.2588 6.66572 16.0271 6.83404 15.8542C7.00236 15.6814 7.23151 15.5811 7.47269 15.5747ZM9.31598 21.8754L10.3757 20.8157C10.7368 20.4546 11.3232 20.4546 11.6844 20.8157C12.0455 21.1769 12.0455 21.7633 11.6844 22.1245L10.6247 23.1841C10.2635 23.5453 9.67714 23.5453 9.31598 23.1841C8.95482 22.823 8.95482 22.2366 9.31598 21.8754Z" fill="white"/>
</svg>
