<svg width="20" height="25" viewBox="0 0 20 25" fill="none" xmlns="http://www.w3.org/2000/svg">
<path d="M8.12583 15.4904L11.6169 12.9575L11.614 14.2103L8.12335 16.7432L8.12583 15.4904Z" fill="#E6C40F"/>
<path d="M8.12335 16.7428L11.614 14.21L14.6709 16.4135L11.1798 18.9464L8.12335 16.7428Z" fill="#FFD812"/>
<path d="M11.1797 18.9464L14.6708 16.4136L14.6592 21.4252L11.1686 23.9581L11.1797 18.9464Z" fill="#E6C40F"/>
<path d="M8.13718 10.4782L11.6282 7.94531L14.6847 10.1489L11.194 12.6818L8.13718 10.4782Z" fill="#FFD812"/>
<path d="M11.194 12.6818L14.6847 10.1489L14.6735 15.1611L11.1824 17.694L11.194 12.6818Z" fill="#E6C40F"/>
<path d="M4.65411 3.5745L8.14519 1.04163L11.6387 3.56007L8.14766 6.09295L4.65411 3.5745Z" fill="#FFD812"/>
<path d="M8.14708 6.09293L11.6382 3.56006L11.6282 7.94505L8.13718 10.4779L8.14708 6.09293Z" fill="#E6C40F"/>
<path d="M8.14726 6.09291L8.13735 10.4779L11.1942 12.6815L11.1827 17.6936L8.1258 15.49L8.12332 16.7428L11.1798 18.9464L11.1686 23.958L6.36499 20.4955L4.62399 16.7305L4.65371 3.57446L8.14726 6.09291Z" fill="#BF9832"/>
</svg>
