<svg width="20" height="20" viewBox="0 0 20 20" fill="none" xmlns="http://www.w3.org/2000/svg">
<path d="M4.32199 1.66663L7.17419 3.3136L4.51646 4.84534L1.66666 3.20077L4.32199 1.66663Z" fill="#F43F5E"/>
<path d="M7.17419 3.3136L7.73839 6.21141L7.31104 6.4587L5.75049 11.1524L4.51645 4.84534L7.17419 3.3136Z" fill="#9F1239"/>
<path d="M9.96637 4.927L12.6313 6.46595L9.97597 7.99769L7.31104 6.45874L7.73839 6.21145L9.96637 4.927Z" fill="#F43F5E"/>
<path d="M12.6317 6.46594L13.352 9.35897L12.843 9.65427L11.6042 14.5448L9.97638 7.99768L12.6317 6.46594Z" fill="#9F1239"/>
<path d="M15.5003 8.12012L18.3333 9.75508L15.678 11.2892L12.8426 9.65426L13.3516 9.35896L15.5003 8.12012Z" fill="#F43F5E"/>
<path d="M18.3333 9.755L15.4979 17.0032L12.8426 18.5373L15.678 11.2891L18.3333 9.755Z" fill="#9F1239"/>
<path d="M1.66666 3.20081L4.51646 4.84538L5.7505 11.1524L7.31104 6.45874L9.97598 7.99769L11.6038 14.5448L12.8426 9.65428L15.678 11.2892L12.8426 18.5374L10.2185 17.0225L9.44779 13.9302L8.66032 10.7779L7.15499 15.253L4.51886 13.7309L1.66666 3.20081Z" fill="#BE123C"/>
<path d="M7.155 15.253L8.66033 10.7778L9.44781 13.9301L7.155 15.253Z" fill="#9F1239"/>
</svg>
